<svg id="Layer_1" data-name="Layer 1" xmlns="http://www.w3.org/2000/svg" viewBox="0 0 1866.35 985.93"><defs><style>.cls-1{fill:#e8d0e5;}.cls-1,.cls-10,.cls-11,.cls-12,.cls-2,.cls-3,.cls-4{stroke:#020202;}.cls-1,.cls-10,.cls-11,.cls-2,.cls-3,.cls-4,.cls-5,.cls-6{stroke-miterlimit:22.65;}.cls-1,.cls-10,.cls-11,.cls-2,.cls-3,.cls-4,.cls-5{stroke-width:0.45px;}.cls-2{fill:#dbeccb;}.cls-3{fill:#fbd1d1;}.cls-4{fill:#fdfad6;}.cls-5{fill:#d3d3d3;stroke:#030303;}.cls-6{fill:none;stroke:#040404;stroke-width:1.13px;}.cls-7{fill:#ffefd5;}.cls-7,.cls-8,.cls-9{stroke:#000;stroke-width:0.5px;}.cls-12,.cls-7,.cls-8,.cls-9{stroke-miterlimit:10;}.cls-8{fill:#fff;}.cls-9{fill:#faf9d5;}.cls-10{fill:#fffef5;}.cls-11{fill:#dbdbdb;}</style></defs><path id="_329" data-name=" 329" class="cls-1" d="M809.64,737.93c5.4-8.2.9-19.9-4.5-29.2-5.4-10-23.6-14.5-19.9-29.2,0-2.7,2.7-5.4,1.8-8.2-7.2-11.8-25.6-18.1-22.6-33.7.9-4.5,5.4-7.2,7.2-10.9,10.9-19.9-3.6-48.2,19.9-58.2,27.4-10.9,44.6-31,42.8-60.9-.25-4.19,5.25-4.92,5.4-8.2.27-5.83-7.69-10.92-14.35-14.28l-9.66-14.36-6.5-14.36c1.41-3.09,3.55-9,.95-13.49-2-3.39-5.68-4.34-14.15-6.31-21.81-5.09-26.3-4.19-28.3-8.2-2.7-5.4,0-15.4-7.2-19-6.3-1.8-10.9,4.5-15.4,6.3-11.8,2.7-25.4-2.7-31,9.1-4.5,9.1,2.7,19,10.9,24.7a22.87,22.87,0,0,1,.22,2.7,26.64,26.64,0,0,1-3.78,14c-.17,3-1.06,12-8.24,18.72-2.46,2.29-7,6.48-11.09,5.31-5.81-1.65-12.85-14.55-13.62-16.13a.86.86,0,0,0-.41-.43c-1.29-.47-3.83,4.26-5.71,6.66-2.13,2.72-6.08,5.86-14.09,7.33l-18.94,10.15a46.53,46.53,0,0,0-17.84,8c-12.44,9.27-13.16,20.34-24.91,26.72-3.78,2.05-9.7,4.16-18.6,3.6.5.2.9.7,1.4.9,3.6,1.8-.9,7.2-3.6,11.8-5.4,6.3-.9,15.4-3.6,23.8-1.8,2.7-4.5,5.4-8.2,3.6-21.1-14.5-43.7-20.8-67.3-27.4-5.4-1.8-8.2-6.3-12.7-10a13.57,13.57,0,0,0-11.8,0c-7.2,2.7-13.6,10-21.7,10-17,.9-34,4.1-51,2.9,3.2,14.9-.5,31.9-3.2,44.4-1.1,5.2-2.3,10.4-2.3,12.7,0,7.9-3.6,21.5-8.4,40.3-6.6,25.8-14.9,58.2-14.9,81.5s-10.9,35.1-23.8,41.2c18.1,9.1,46.2,16.8,74.1-2,53.9-35.8,155.8-31.3,199.8-12.5,27.9,12,96.9,27.2,134.8,34.9a186.88,186.88,0,0,0,44-54.29Z" transform="translate(0 0)"/><path id="_351" data-name=" 351" class="cls-2" d="M902.54,680.43c-14.5-.9-22.6-16.3-36.5-21.1-6.3-2.7-12.9,0-19,3.6-4.5,2.7-10.9,2.7-15.4.9-17.2-8.2-25.6-31-45.5-33.7-5.4-.7-10.6-1.4-15.9-1.6-2,2.7-5.2,5.2-5.9,8.8-2.7,15.4,15.4,21.7,22.6,33.7.9,2.7-1.8,5.4-1.8,8.2-3.6,14.5,14.5,19,20.2,29.2,5.4,9.1,10,20.8,4.5,29.2-14,17.9-24.5,43.9-44.2,54.6,15.4,3.2,25.6,5.2,26,5.2L800,799l-1.4,8.4c-.2,1.1-3.6,28.1,35.1,42.6,17.4,6.6,40.1,12.2,62.1,17.9,44.8,11.3,72.7,19,81.5,31.9,7.5,11.1,63.9,56.6,101.9,85.8,23.8-27,56.2-69.5,56.2-87,0-28.3,0-60.2-20.6-80.9-22.9-22.9-53-58.7-65.5-83.6-4.1-8.2-12.7-27.6-14-49.8-43.8-10.9-88.7-2.1-132.8-3.9Z" transform="translate(0 0)"/><path id="_350" data-name=" 350" class="cls-3" d="M879.64,657.83c7.2-3.6,19-7.2,15.4-16.3-3.6-10-19-14.5-15.4-26.3,3.6-9.1,16.3-15.4,11.8-26.3-3.6-9.1-11.8-15.4-19.9-20.2-1.8-.9-4.5-1.8-6.3-2.7-10.9-7.2-18.1-18.1-31-22.6a33.59,33.59,0,0,0-7.9-1.6c-7.5,12-19.5,21.1-34.9,27.2-23.8,10-9.1,38.3-19.9,58.2a23.21,23.21,0,0,0-1.4,2.3,124.12,124.12,0,0,1,15.9,1.6c19.9,2.7,28.3,25.6,45.5,33.7,4.5,1.8,10.9,1.8,15.4-.9,6.3-3.6,12.7-6.3,19-3.6a28.55,28.55,0,0,1,7.2,3.6,17.14,17.14,0,0,1,6.5-6.1Z" transform="translate(0 0)"/><path id="_453" data-name=" 453" class="cls-4" d="M955.24,606.83c-.9-4.5-4.5-8.2-8.2-10-6.3-3.6-12.7,3.6-19,2.7-5.4-1.8-9.1-6.3-12.9-7.2-7.9-.7-16.1-.5-23.3-2.5,3.4,10.2-8.6,16.5-12.2,25.4-3.6,11.8,11.8,16.3,15.4,26.5,3.6,9.1-8.2,12.7-15.4,16.3a23,23,0,0,0-6.6,5.4c9.7,6.3,17.4,16.8,29.2,17.4,44.2,1.8,89-7.2,132.5,4.3a82.81,82.81,0,0,1,.7-18.6c-12.2-3.6-20.2-14.3-32.2-17.7-22.6-6.4-41.6-18.4-48-42Z" transform="translate(0 0)"/><path id="_349" data-name=" 349" class="cls-2" d="M1066.54,554.73c-.2-.5-15.2-31-17.4-58.7-5.9-2.9-12.7-4.8-18.3-8.6-10.9-6.3-14.5-20.8-28.3-23.8-12.7-3.6-25.6,3.6-38.3.9-15.4-4.5-22.9-21.7-39.2-24.7-9.5-1.6-18.6-.5-27.4,2-1.6,4.3-4.1,8.6-5.4,12.5-2.7,8.2.9,17.2-3.6,25.6-8.2,15.4-26.5,5.4-41,7.2-3.6.9-6.3,6.3-8.2,11.8-.9,2.7-5.4,5.4-5.4,8.2a59.62,59.62,0,0,1-7.9,34,31.69,31.69,0,0,1,7.9,1.6c12.7,4.5,19.9,15.4,31,22.6,1.8.9,4.5,1.8,6.3,2.7,8.2,4.5,16.3,10.9,19.9,20.2.2.2.2.7.5,1.1,7.2,2.3,15.4,2,23.3,2.5,3.6.9,7.2,5.4,12.9,7.2,6.3.9,12.7-6.3,19-2.7,3.6,1.8,7.2,5.4,8.2,10,6.3,23.6,25.6,35.6,48.2,41.9,12,3.4,19.9,14,32.2,17.7a69.8,69.8,0,0,1,14.5-33.7c20.3-25.2,26.9-56.4,16.5-77.5Z" transform="translate(0 0)"/><path id="PATH_8" data-name="PATH 8" class="cls-5" d="M1049,496c0-1.4-.2-2.7-.2-4.1a36.73,36.73,0,0,1-2.3,2.9A9.65,9.65,0,0,0,1049,496Z" transform="translate(0 0)"/><path id="_7" data-name=" 7" class="cls-1" d="M1067.38,357.75c12.48-3.74,16.28-17.12,17-19.53,2.12-7.46,2.83-14.56-.9-20.8-13.4-22.4-14.9-45.5-9.7-67.9-15.6-6.6-29.4-13.8-39-25.6-8.4,5.7-15.9,12.2-18.8,20.6-4.5,10.9-13.6,18.1-19,28.3a9.93,9.93,0,0,0,0,10c11.89,18.49,33.61,25,35.42,41.33,1.37,12.4-14.55,20.29-11.22,27.17,2.81,5.79,16.4,5,26.6,3.6,1.9,1.11,10.18,5.66,19.64,2.83Z" transform="translate(0 0)"/><path id="_335" data-name=" 335" class="cls-2" d="M699.34,212.53c0,2.7-2.7,5.4-4.5,8.2-2.7,6.3-10.9,9.1-14.5,15.4-7.2,14.5-6.3,30.1-6.3,44.6.9,16.3,21.7,15.4,31.7,4.5,4.5-3.6,4.5-10,5.4-16.3.9-7.2,11.8-10.9,18.1-6.3,9.1,5.4,19,16.3,30.1,10.9,10.9-5.4,22-17.2,33.7-12.7,10.9,3.6,15.4,16.3,23.8,25.6A31.08,31.08,0,0,0,825,290c10,3.6,22,0,31.9,6.3,11.8,6.3,30.1,13.6,43.7,0,13.6-14.5,33.7,1.8,52.8-3.6,7.2-1.8,16.3-6.3,23.8-2.7,8.6,3.4,15.4.2,22-4.5a14.09,14.09,0,0,1-1.8-2.7,9.93,9.93,0,0,1,0-10c5.4-10,14.7-17.2,19-28.3,2.7-8.4,10.4-15.2,18.8-20.6a54.08,54.08,0,0,1-9.7-18.8c-10.4-36.5-31.9-71.1-55-88.3-9.1-6.8-29.9-17.2-52.1-28.3-33.7-16.8-72-35.8-93.3-53.5A232.22,232.22,0,0,0,768.54.33c-2,18.3-6.3,53.5-10.6,70.7-2.7,10.4-7.2,17.9-12.2,25.6-7.5,11.8-15.9,25.1-22.4,55.5-4.5,20.2-14.3,31.5-26.5,37.6-2.5,7.6,1.8,14.6,2.5,22.8Z" transform="translate(0 0)"/><path id="_221" data-name=" 221" class="cls-3" d="M487.34,364.73c3.6,0,9.1-6.3,10.9-2.7,11.8,16.3,26.5,12.7,41.9,10,5.4-.9,9.1,7.2,11.8,6.3,10.9-4.5,25.6-12.7,23.8-23.8-1.8-8.2-16.3,0-24.5-5.4-7.2-4.5-12.9-11.8-20.2-14.5-6.3-1.8-12.7,1.8-18.1,5.4-1.8.9-5.4.9-7.2-.9-7-8.6-16.5-13.1-26.3-16.5a91.56,91.56,0,0,1-21.3,17.7c5.6,13.3,14,24.4,29.2,24.4Z" transform="translate(0 0)"/><path id="_326" data-name=" 326" class="cls-2" d="M638.44,475.73l5.4-15.3a60.11,60.11,0,0,0,9.1-1.9c19.51-5.68,31.55-19.94,37.4-28.3,4.5-6.3,3.6-19.9-5.4-22.6-9.1-1.8-15.4-6.3-22-12.7a10.22,10.22,0,0,0-7.2-2.7c-19.9,2.7-35.6-2.7-53.7-12.7-11.8-6.3-26.5,15.4-36.5,29.2a8.34,8.34,0,0,0,0,9.1c11.8,17.2,4.5,34.7,6.3,52.8,0,4.5,5.4,8.2,7.2,12.7,2.7,4.5-.9,9.1-4.5,12.7-.9,1.8-.9,4.5,0,5.4,11.1,9.5,16.1,20.4,20.2,33.3,3.9-.7,7.7-1.1,11.8-2.5,14.5-5.4,18.1-27.4,33.7-31,8.6-2.5,16.5-6.8,24-11.6-11,3.47-21.09.7-24.59-5.55a12.69,12.69,0,0,1-1.21-8.35Z" transform="translate(0 0)"/><path id="_338" data-name=" 338" class="cls-1" d="M599.24,364.73c-2.7-8.8-14-12.7-24-11.1a1.49,1.49,0,0,1,.2.9c1.8,10.9-12.7,19-23.8,23.8-2.7.9-6.3-7.2-11.8-6.3-15.4,2.7-30.1,6.3-41.9-10-1.8-3.6-7.2,2.7-10.9,2.7-14.9,0-23.6-11.1-29.2-24.5a107.62,107.62,0,0,1-18.8,9.1c-.7,5.9-1.6,12,2.7,17.9,5.4,8.2,10.9,16.3,12.7,25.6,4.5,15.4-11.8,25.6-23.8,31-12.7,5.4-26.3,13.6-40.1,15.4-22.6,3.6-53.7,14.5-43.7,41,5.9,16.1,27.4,26.3,32.6,41a41.11,41.11,0,0,1,10.2,4.1c.2-2.7.5-5.7,1.8-7.5,6.3-6.3,13.8-10.9,17.2-18.1,5.4-10.9,5.4-24.7,18.1-29.2,6.3-1.8,14.5,1.8,20.8-.9,9.1-3.6,17.2-11.8,28.3-10,8.2.9,12.9,8.2,19,10.9,10,3.6,19.9-4.5,28.3-.9a22.42,22.42,0,0,1,7.2,4.1,71.39,71.39,0,0,0,14.5-19.7c1.8-3.6,5.4-7.2,9.1-10.9,5.2-4.3,10.9-8.8,16.3-13.6a39.78,39.78,0,0,0-5.4-12,8.34,8.34,0,0,1,0-9.1c10-13.6,24.5-35.3,36.2-29.2a29.41,29.41,0,0,0-1.8-14.5Z" transform="translate(0 0)"/><path id="_586" data-name=" 586" class="cls-4" d="M545.54,453.93a76.24,76.24,0,0,1-14.5,19.5c6.3,5.2,10.6,13.1,18.3,18.6.9,1.8,1.8,5.4.9,8.2-4.5,8.2-15.4,15.4-8.2,23.6,7.2,9.1,20.8,0,29.2,3.6,5.9,1.6,11.8,5,17,8.2,2.3-.7,4.5-.9,6.8-1.4-3.9-12.9-9.1-23.8-20.2-33.3-.9-.9-.9-3.6,0-5.4,3.6-3.6,7.2-8.2,4.5-12.7-1.8-4.5-7.2-8.2-7.2-12.7-1.4-14,2.5-27.4-.9-40.8-5.4,4.8-11.1,9.3-16.3,13.6-4,3.5-7.6,7.2-9.4,11Z" transform="translate(0 0)"/><path id="PATH_15" data-name="PATH 15" class="cls-4" d="M999,285.43c-6.6,4.5-13.4,7.9-22,4.5-7.2-3.6-16.3.9-23.8,2.7-19,5.4-39.2-10.9-52.8,3.6-13.6,13.6-31.9,6.3-43.7,0-10-6.3-21.7-2.7-31.9-6.3a34.2,34.2,0,0,1-8.2-3.6c-8.2-9.1-12.7-21.7-23.8-25.6-11.8-4.5-22.6,7.2-33.5,12.7s-21.1-5.4-30.1-10.9c-6.3-4.5-17.2-.9-18.1,6.3-.9,6.3-.9,12.7-5.4,16.3-10,10.9-31,11.8-31.9-4.5,0-14.5-.9-30.1,6.3-44.6,3.6-6.3,11.8-9.1,14.5-15.4,1.8-2.7,4.5-5.4,4.5-8.2-.7-8.2-5.2-15.2-3.2-22.9-20.6,10-48.5,4.5-69.3.7-4.3-.9-8.6-1.6-12.7-2.3-24-4.1-42.4,12-63.4,30.6-5.4,4.8-10.9,9.5-16.8,14-14.7,11.8-21.5,27.6-28.3,44.4-5.7,13.8-11.8,28.1-22.4,41.4a31.57,31.57,0,0,1-3.9,4.3c9.7,3.4,19,7.9,26.3,16.5,1.8,1.8,5.4,1.8,7.2.9,5.4-3.6,11.8-7.2,18.1-5.4,7.2,2.7,12.7,10,20.2,14.5,7.9,5.2,21.5-2,24.2,4.5,10-1.6,21.3,2,24,11.1a43,43,0,0,1,2.5,14.5h.2c18.1,10,33.7,15.4,53.7,12.7a10.22,10.22,0,0,1,7.2,2.7c6.3,6.3,12.9,10.9,22,12.7,9.1,2.7,10,16.3,5.4,22.6a51.64,51.64,0,0,1,28.36,11.31c-.81-.94-7.82-9.29-4.86-16.9a11.13,11.13,0,0,1,3.5-4.71c6.57-5.43,17.58-2.07,27.5-4.39,4.5-1.8,9.1-8.2,15.4-6.3,7.2,3.6,4.5,13.6,7.2,19,5.4,9.1,18.1,5.4,28.3,8.2,4.5.9,9.1,8.2,14.5,4.5,4.5-2.7,9.1-7.2,14.5-9.1l32.51-15.49,29.49,8,12.39,7q-.75,5.31-1.49,10.61a56.2,56.2,0,0,1,27.4-2c16.3,2.7,23.6,19.9,39.2,24.5,11.3,2.5,22.6-3.2,34.2-1.8a3.2,3.2,0,0,0-.5-1.8c-3.6-9.1-14.5-17.2-7.2-28.3,2.7-3.6,6.3-8.2,8.2-11.8,12.7-28.3,13.6-59.1,31-86.5a18.25,18.25,0,0,0,2.84-10.13c.47-16.5-18.88-30.14-33.54-38.37Z" transform="translate(0 0)"/><path id="_324" data-name=" 324" class="cls-3" d="M1448.54,348.13c-23.8-8.2-49.1-10.9-72.9-19.9-17.2-5.4-37.4-1.8-53.7-8.2-17.2-6.3-32.6-14.5-49.6-19.9-13.4,2.5-25.8,3.9-35.8,3.9-4.1,0-8.2.2-12,.2-19.68,0-29.52,0-38.45-2.45-16.64-4.54-20.58-13-27.45-10.35-6.58,2.54-9,12.63-9.9,21.81l-14.6,25.25-17.59,23.93-45.2-4.1a60,60,0,0,0-7.93,23.19c-2.63,21.62,7.67,38,11,42.91.9,5.4,0,10.9-2.7,14.5a112.92,112.92,0,0,0-12.5,21.3c12-10.2,31.5-7.9,59.6,7.2,86.7,46.2,116,58,144.3,69.3,12.5,5,23.8,14.5,35.6,24.7,10,8.4,20.6,17.7,33.3,25.1,7.7-10,13.8-22.4,21.7-32.6a155.54,155.54,0,0,0,18.1-25.6c20.8-34.7,28.3-72.7,43.7-109.2,2.7-6.3,6.3-11.8,7.2-19a12.82,12.82,0,0,1,3.6-1.8c1.57-.82,25-13.59,25.4-35.6a33.61,33.61,0,0,0-3.2-14.6Z" transform="translate(0 0)"/><path id="_323" data-name=" 323" class="cls-4" d="M1779.74,234c-12.7-4.3-36.5-9.5-62.1-14.9-44.2-9.7-94.7-20.6-113.9-32.2-21.1-12.7-103.1-30.1-141.1-19-5.4,1.6-12.5,4.5-15.2,9.7-18.3,36.7-72.3,78.6-101.9,96.5-20.6,12.5-48.5,21.5-73.2,26.3,17,5.4,32.4,13.6,49.6,19.9,16.3,6.3,36.5,2.7,53.7,8.2,23.8,9.1,49.1,11.8,72.9,20.2,3.6.9,8.2,9.1,3.6,14.5-9.1,10.9-19.9,20.8-25.4,35.6a12.82,12.82,0,0,0-3.6,1.8c-.9,7.2-4.5,12.7-7.2,19-15.4,36.5-22.9,74.7-43.7,109.2a197.8,197.8,0,0,1-18.1,25.6c-8.2,10.4-14.3,22.6-21.7,32.6a110.26,110.26,0,0,0,34.2,13.6c51.2,11.3,103.3-.9,112.3-18.6,13.6-27,80-96.9,143.6-125.9,40.3-18.3,76.1-48.7,104.6-73.2,15.4-13.1,28.8-24.5,39.6-31,15.9-9.5,28.3-22.9,39.2-34.9,8.4-9.1,16.1-17.4,24.2-22.9,10.4-7,26-23.6,35.8-34.4-21-6-61.1-17.6-86.2-25.7Z" transform="translate(0 0)"/><path id="_337" data-name=" 337" class="cls-3" d="M460.52,548.84a121.73,121.73,0,0,0,33.22-10.21c.61,1.15,4.59,8.34,12.7,10s17.16-3,21.56-11.63c7.13-3.47,14.51-8.14,14-12.87-.2-2-2-2.6-2.34-4.71-.87-6.35,6.84-12.29,10.54-18.89.9-2.7,0-6.3-.9-8.2-10-7.2-14.5-19-25.6-22.6-8.2-3.6-18.1,4.5-28.3.9-6.3-2.7-10.9-10-19-10.9-10.9-1.8-19,6.3-28.3,10-6.3,2.7-14.5-.9-20.8.9-12.9,4.5-12.9,18.1-18.1,29.2-3.6,7.2-10.9,11.8-17.2,18.1-1.6,2-1.6,4.8-1.8,7.5a34.42,34.42,0,0,1,11.3,9.3,39.26,39.26,0,0,1,7.9,17.2c5.91-.19,14.57-.51,25.06-1.09C447.89,550.11,454.71,549.73,460.52,548.84Z" transform="translate(0 0)"/><path id="_226" data-name=" 226" class="cls-2" d="M347.14,480.23c-10-26.5,21.1-37.4,43.7-41,13.8-1.8,27.4-10,40.1-15.4,11.8-5.4,28.3-15.4,23.8-31-1.8-9.1-7.2-17.2-12.7-25.6-4.3-5.9-3.2-12-2.7-17.9a117.35,117.35,0,0,1-38.3,7c-5.4,0-17,.7-31.5,1.4-31.9,1.8-80,4.3-131.1,4.3-61.6,0-118.2,7.7-163.8,13.8-9.5,1.4-18.6,2.5-27,3.6-38.3,4.8-44.6,78.4-44.6,79a9.33,9.33,0,0,1-2.5,5.4c33.5-1.6,71.6-3.2,86.7-3.2,5.4,0,11.1-.2,17.2-.5,27.9-.9,62.5-2.3,101.9,12.5,11.3,4.3,22.4,9.1,34.2,14.3,35.8,15.6,72.7,31.7,119.6,31.7a73,73,0,0,1,19.5,2.3c-5.1-14.4-26.6-24.6-32.5-40.7Z" transform="translate(0 0)"/><line id="LINE_20" data-name="LINE 20" class="cls-6" x1="617.84" y1="459.13" x2="585.84" y2="86.83"/><line id="LINE_21" data-name="LINE 21" class="cls-6" x1="479.44" y1="518.53" x2="356.44" y2="566.73"/><line id="LINE_22" data-name="LINE 22" class="cls-6" x1="563.44" y1="494.53" x2="358.94" y2="624.53"/><line id="LINE_23" data-name="LINE 23" class="cls-6" x1="1127.44" y1="205.93" x2="1032.74" y2="273.43"/><line id="LINE_24" data-name="LINE 24" class="cls-6" x1="519.54" y1="353.83" x2="440.44" y2="317.33"/><g id="G_25" data-name="G 25"><path id="PATH_26" data-name="PATH 26" d="M545.54,64.33h-.9a2.76,2.76,0,0,1-1.8-.5v.7a11.33,11.33,0,0,1-2,6.1c-1.1,1.8-2.3,2.5-2.9,2.5a30.3,30.3,0,0,1-4.5-.2,1,1,0,0,1-.7-.2,1,1,0,0,1,.7-.2,17.08,17.08,0,0,0,5.4-2.7c1.8-1.6,2.9-3.2,2.9-4.8,0-.9-.7-2.3-2.3-3.9l1.1-2a.2.2,0,0,1,.2-.2l.2.2c.7.9,1.1,1.6,1.6,1.8a4.47,4.47,0,0,0,2.5.9h.7v2.5Z" transform="translate(0 0)"/><path id="PATH_27" data-name="PATH 27" d="M559.64,64.33h-1.1a6.55,6.55,0,0,0-2.5.5c-1.1.5-1.8,1.1-1.8,2.3,0,1.4.9,2.5,2.7,3.6l-1.1,2.3a13.07,13.07,0,0,1-5.2-3.2,7.54,7.54,0,0,1-2.7-5.7h-3.2v-2.7h2.9a16.15,16.15,0,0,1,1.4-5.9c.9-2,1.6-2.9,2-2.9s1.1.9,1.8,2.9a10.52,10.52,0,0,1,.9,3.6q0,4.8-4.8,4.8a7,7,0,0,0,1.4,2.7,6.72,6.72,0,0,0,2.5,2v-.9a8.91,8.91,0,0,1,1.1-4.1,5.16,5.16,0,0,1,4.5-2.5h.9v3.2Zm-6.8-3.6a6.79,6.79,0,0,0-.7-2.5c-.5-1.4-.9-1.8-1.4-1.8-.2,0-.7.5-1.1,1.6a11.78,11.78,0,0,0-.7,3.9C551.44,61.63,552.84,61.43,552.84,60.73Z" transform="translate(0 0)"/><path id="PATH_28" data-name="PATH 28" d="M580.44,64.33H579a3.47,3.47,0,0,1-3.2-1.8,2.71,2.71,0,0,1-2.9,1.8,3.22,3.22,0,0,1-2.9-1.8,2.86,2.86,0,0,1-2.9,1.8,3.79,3.79,0,0,1-3.4-1.8,3.74,3.74,0,0,1-3.6,1.8h-1.6v-2.7h1.8a2.73,2.73,0,0,0,2.9-2.7c0-.5.2-.7.5-.7s.2.2.5.7c.2,1.8,1.1,2.7,2.9,2.7a2.47,2.47,0,0,0,2.7-2.7c0-.5.2-.7.5-.7s.5.2.5.7c.2,1.8,1.1,2.7,2.3,2.7a2.47,2.47,0,0,0,2.7-2.7c0-.5.2-.7.5-.7s.5.2.5.7q.3,2.7,2.7,2.7h1.4v2.7ZM570,52.83l-1.6,1.6-1.6-1.6,1.6-1.6Zm2-3.4-1.6,1.6-1.6-1.6,1.6-1.6Zm2.1,3.4-1.6,1.6-1.6-1.6,1.6-1.6Z" transform="translate(0 0)"/><path id="PATH_29" data-name="PATH 29" d="M591.74,59.83a5.57,5.57,0,0,1-.5,2.9c-.5,1.1-1.1,1.8-1.8,1.8-1.1,0-2.9-.7-5.2-2.3a8.72,8.72,0,0,1-1.4,1.6,3.69,3.69,0,0,1-2.3.7h-1.1v-2.7H581a3.59,3.59,0,0,0,2.7-1.6,32,32,0,0,0,2-2.9,3,3,0,0,1,2.3-1.6,3.06,3.06,0,0,1,2.7,1.6A4,4,0,0,1,591.74,59.83Zm-1.3,1.6a4.62,4.62,0,0,0-.7-2.3c-.5-.9-1.1-1.4-1.8-1.4s-1.4.7-2.3,2a8.62,8.62,0,0,0,2,1.4,5.25,5.25,0,0,0,2.3.7C590.14,62.13,590.44,61.93,590.44,61.43Z" transform="translate(0 0)"/><path id="PATH_30" data-name="PATH 30" d="M613,64.33h-1.4c-2.7,0-4.3-2-4.3-6.1v-2c-1.8,4.3-3.9,7.5-6.6,9.3a20.3,20.3,0,0,1-5.9.7h-.7a13.47,13.47,0,0,1,2-1.1c.9-.5,1.8-.9,2.7-1.4a12,12,0,0,0,4.5-3.4,20.23,20.23,0,0,0-2.9-6.1,29.09,29.09,0,0,0-4.3-4.1l-.2.9a11.43,11.43,0,0,1-1.6-1.4c-.7-.7-1.1-1.1-1.1-1.6a12.16,12.16,0,0,1,.2-2.3c0-.2,0-.5.2-.5s.2,0,.5.2a30.53,30.53,0,0,1,6.6,5.9,19.49,19.49,0,0,1,3.6,7.7,10.68,10.68,0,0,0,2-3.6,9.84,9.84,0,0,0,.9-4.1,58.88,58.88,0,0,0-.5-6.8l1.8-1.6c.2,1.1.2,6.3.5,15.6,0,2,.9,3.2,2.7,3.2h1.1l.2,2.6Z" transform="translate(0 0)"/><path id="PATH_31" data-name="PATH 31" d="M630.74,59.43a5.25,5.25,0,0,1-.9,3.4,3.91,3.91,0,0,1-2.9,1.6,3.47,3.47,0,0,1-3.2-1.8,3.33,3.33,0,0,1-3.2,1.8,3.79,3.79,0,0,1-3.4-1.8,3.74,3.74,0,0,1-3.6,1.8h-1.6v-2.7h1.8a2.73,2.73,0,0,0,2.9-2.7c0-.5.2-.7.5-.7s.2.2.5.7c.2,1.8,1.1,2.7,2.9,2.7a3.33,3.33,0,0,0,2.3-.7,8.42,8.42,0,0,0,.7-1.8c0-.5.2-.7.5-.7s.2.2.5.7q.3,2.7,2.7,2.7c1.8,0,2.5-.5,2.5-1.1a4,4,0,0,0-1.4-2.5l1.1-2c.2-.2.2-.5.5-.5s.2.2.5.5c0,1,.3,2.2.3,3.1Z" transform="translate(0 0)"/><path id="PATH_32" data-name="PATH 32" d="M636.14,61.43a4.3,4.3,0,0,1-.7,2.5,1.56,1.56,0,0,1-.5.7s-.2-.2-.2-.9c0-2.7-.5-9.1-1.4-19.3l1.8-1.8.2-.2v.5c.8,3.1.8,9.2.8,18.5Z" transform="translate(0 0)"/></g><g id="G_33" data-name="G 33"><path id="PATH_34" data-name="PATH 34" d="M411.24,293.63c0,3.2-1.4,4.8-4.1,4.8a2.69,2.69,0,0,1-2.9-2,3.34,3.34,0,0,1-3.2,2,4.4,4.4,0,0,1-1.6-.2c0,1.4-.2,2.7-.2,4.3a7.4,7.4,0,0,1-3.9,3.9,15.23,15.23,0,0,1-5.7,1.1,8.68,8.68,0,0,1-5-1.4,5.22,5.22,0,0,1-2-4.5,9.37,9.37,0,0,1,.7-3.4,11.07,11.07,0,0,1,1.1-2,.78.78,0,0,1,.5-.2.18.18,0,0,1,.2.2v.5a8.47,8.47,0,0,0-.9,3.9,4.93,4.93,0,0,0,1.1,2.9c.9,1.1,2.5,1.6,4.5,1.6a16.77,16.77,0,0,0,5.9-1.1c1.4-.7,2.3-1.4,2.5-2.3.2-.2.2-.7,0-1.6a13.24,13.24,0,0,0-.2-1.6,10.81,10.81,0,0,0-2.3-3.4l.9-1.8a.78.78,0,0,0,.2-.5.2.2,0,0,1,.2.2,14.18,14.18,0,0,0,1.4,1.8,2.94,2.94,0,0,0,2.3.9,2.7,2.7,0,0,0,2.3-.9,7.29,7.29,0,0,0,.7-2c0-.5.2-.7.5-.7s.2.2.2.7a5,5,0,0,0,.9,2.3,3.56,3.56,0,0,0,2.5.7,1.29,1.29,0,0,0,1.1-.5,1.17,1.17,0,0,0,.7-1.1c0-.7-.5-1.4-1.4-2.5l1.1-2,.2-.2.2.2a6.39,6.39,0,0,1,1.5,3.9Z" transform="translate(0 0)"/><path id="PATH_35" data-name="PATH 35" d="M428.94,298.33H428a2.94,2.94,0,0,1-2.3-.9,7,7,0,0,1-1.4-1.8,5.06,5.06,0,0,1-1.8,2,7.73,7.73,0,0,1-3.9.7c-3.2,0-4.8-1.1-4.8-3.4a4.11,4.11,0,0,1,.7-2.3c.2-.2.2-.5.5-.5s.2.2.2.5V294c0,1.4,1.1,2,3.4,2,3.2,0,4.8-.7,4.8-1.8q0-1.05-2.7-7.5l.9-1.8a.78.78,0,0,0,.2-.5.77.77,0,0,1,.2.5c.7,1.8,1.8,4.5,3.2,8.2.7,1.8,1.6,2.7,2.9,2.7h.7l.1,2.5Z" transform="translate(0 0)"/><path id="PATH_36" data-name="PATH 36" d="M437.74,292c0,2-.2,3.4-.7,4.1-1.1,1.6-2.9,2.3-5.9,2.3h-3.2v-2.7h2.3c3.9,0,5.9-.7,6.3-1.8a1.76,1.76,0,0,0-.2-1.4,13.22,13.22,0,0,1-2.9.2c-2,0-3.2-.9-3.2-2.7a6.88,6.88,0,0,1,.9-3.6,3,3,0,0,1,2.7-2,3.28,3.28,0,0,1,2.5,1.8,11.85,11.85,0,0,1,1.4,5.8Zm-4.5-12.5-1.8,1.8-1.8-1.8,1.8-1.8Zm2.7,10.4a3.06,3.06,0,0,0-.7-2,2,2,0,0,0-1.8-.9,2.65,2.65,0,0,0-1.4.5c-.5.2-.5.7-.5,1.1,0,.9.7,1.4,2.3,1.4A3.08,3.08,0,0,0,435.94,289.93Zm1.1-10.4-1.8,1.8-1.8-1.8,1.8-1.8Z" transform="translate(0 0)"/></g><g id="G_37" data-name="G 37"><path id="PATH_38" data-name="PATH 38" d="M238.84,422.73c0,3.2-2,4.8-6.3,4.8a6,6,0,0,1-3.4-.7,3.19,3.19,0,0,1-1.4-2.9,4.55,4.55,0,0,1,.5-2c.2-.2.2-.5.5-.5s.2.2.2.7v.7a1.73,1.73,0,0,0,1.4,1.8,8.27,8.27,0,0,0,2.5.2c3.4,0,5-.5,5-1.6,0-1.6-2-3.9-5.9-6.6l.7-2.3a.2.2,0,0,1,.2-.2,1,1,0,0,1,.5.2C236.84,417.23,238.84,420.23,238.84,422.73Z" transform="translate(0 0)"/><path id="PATH_39" data-name="PATH 39" d="M250.24,427.63a11.2,11.2,0,0,1-2,6.3c-1.1,1.6-2.3,2.5-2.9,2.5a30.3,30.3,0,0,1-4.5-.2.38.38,0,1,1,0-.4,17.08,17.08,0,0,0,5.4-2.7c1.8-1.6,2.9-3.2,2.9-4.8,0-.9-.7-2.3-2.3-3.9l1.1-2a.2.2,0,0,1,.2-.2l.2.2a8.56,8.56,0,0,1,1.4,2.7,9.23,9.23,0,0,1,.5,2.5Z" transform="translate(0 0)"/><path id="PATH_40" data-name="PATH 40" d="M271.54,427.43h-1.4c-2.7,0-4.3-2-4.3-6.1v-2c-1.8,4.3-3.9,7.5-6.6,9.3a20.3,20.3,0,0,1-5.9.7h-.7a13.47,13.47,0,0,1,2-1.1c.9-.5,1.8-.9,2.7-1.4a12,12,0,0,0,4.5-3.4,20.23,20.23,0,0,0-2.9-6.1,29.09,29.09,0,0,0-4.3-4.1l-.2.9a11.43,11.43,0,0,1-1.6-1.4c-.7-.7-1.1-1.1-1.1-1.6a12.16,12.16,0,0,1,.2-2.3c0-.2,0-.5.2-.5s.2,0,.5.2a30.53,30.53,0,0,1,6.6,5.9,19.49,19.49,0,0,1,3.6,7.7,10.68,10.68,0,0,0,2-3.6,9.84,9.84,0,0,0,.9-4.1,58.88,58.88,0,0,0-.5-6.8L267,406c.2,1.1.2,6.3.5,15.6,0,2,.9,3.2,2.7,3.2h1.1l.2,2.6Z" transform="translate(0 0)"/><path id="PATH_41" data-name="PATH 41" d="M282.64,422.93a5.57,5.57,0,0,1-.5,2.9c-.5,1.1-1.1,1.8-1.8,1.8-1.1,0-2.9-.7-5.2-2.3a8.72,8.72,0,0,1-1.4,1.6,3.69,3.69,0,0,1-2.3.7h-1.1v-2.7h1.6a3.59,3.59,0,0,0,2.7-1.6,32,32,0,0,0,2-2.9,3,3,0,0,1,2.3-1.6,3.06,3.06,0,0,1,2.7,1.6,3.82,3.82,0,0,1,1,2.5Zm-1.2,1.6a4.62,4.62,0,0,0-.7-2.3c-.5-.9-1.1-1.4-1.8-1.4s-1.4.7-2.3,2a8.62,8.62,0,0,0,2,1.4,5.25,5.25,0,0,0,2.3.7c.3.3.5,0,.5-.4Z" transform="translate(0 0)"/></g><g id="G_42" data-name="G 42"><path id="PATH_43" data-name="PATH 43" d="M468.34,429.53a11.2,11.2,0,0,1-2,6.3c-1.1,1.6-2.3,2.5-2.9,2.5a30.3,30.3,0,0,1-4.5-.2.38.38,0,1,1,0-.4,17.08,17.08,0,0,0,5.4-2.7c1.8-1.6,2.9-3.2,2.9-4.8,0-.9-.7-2.3-2.3-3.9l1.1-2a.2.2,0,0,1,.2-.2l.2.2a10,10,0,0,1,1.9,5.2Z" transform="translate(0 0)"/><path id="PATH_44" data-name="PATH 44" d="M477.34,429.23h-1.5a3.4,3.4,0,0,1-3.4-2,9.85,9.85,0,0,1-.7-4.3v-4.3c0-2-.2-5-.5-8.8l1.4-1.6c.2-.2.5-.2.5,0a83.89,83.89,0,0,1,.5,8.8v6.6a2.39,2.39,0,0,0,2.7,2.7h1.1v2.9Z" transform="translate(0 0)"/><path id="PATH_45" data-name="PATH 45" d="M482.54,424.93c0,2.9-1.6,4.5-4.5,4.5h-1.8v-2.7h1.6c2.3,0,3.4-.5,3.4-1.1a4.37,4.37,0,0,0-1.6-2.7l.9-2.3a.2.2,0,0,1,.2-.2l.5.5a6,6,0,0,1,1.3,4Zm-1.5,9.3-1.8,1.8-1.8-1.8,1.8-1.8Zm3.8,0L483,436l-1.8-1.8,1.8-1.8Z" transform="translate(0 0)"/><path id="PATH_46" data-name="PATH 46" d="M498.94,429.23H498a2.76,2.76,0,0,1-1.8-.5v.7a11.33,11.33,0,0,1-2,6.1c-1.1,1.8-2.3,2.5-2.9,2.5a30.3,30.3,0,0,1-4.5-.2.38.38,0,1,1,0-.4,17.08,17.08,0,0,0,5.4-2.7c1.8-1.6,2.9-3.2,2.9-4.8,0-.9-.7-2.3-2.3-3.9l1.1-2a.2.2,0,0,1,.2-.2l.2.2c.7.9,1.1,1.6,1.6,1.8a4.47,4.47,0,0,0,2.5.9h.7v2.5Z" transform="translate(0 0)"/><path id="PATH_47" data-name="PATH 47" d="M512.94,429.23h-1.1a6.55,6.55,0,0,0-2.5.5c-1.1.5-1.8,1.1-1.8,2.3,0,1.4.9,2.5,2.7,3.6l-1.1,2.3a13.07,13.07,0,0,1-5.2-3.2,7.54,7.54,0,0,1-2.7-5.7H498v-2.7h2.9a16.15,16.15,0,0,1,1.4-5.9c.9-2,1.6-2.9,2-2.9s1.1.9,1.8,2.9a10.52,10.52,0,0,1,.9,3.6q0,4.8-4.8,4.8a7,7,0,0,0,1.4,2.7,6.72,6.72,0,0,0,2.5,2v-.9a8.91,8.91,0,0,1,1.1-4.1,5.16,5.16,0,0,1,4.5-2.5h.9v3.2Zm-6.8-3.6a6.79,6.79,0,0,0-.7-2.5c-.5-1.4-.9-1.8-1.4-1.8-.2,0-.7.5-1.1,1.6a9.69,9.69,0,0,0-.7,3.9c2.5-.1,3.9-.5,3.9-1.2Z" transform="translate(0 0)"/><path id="PATH_48" data-name="PATH 48" d="M530.84,424.53a5.25,5.25,0,0,1-.9,3.4,3.91,3.91,0,0,1-2.9,1.6,3.47,3.47,0,0,1-3.2-1.8,3.33,3.33,0,0,1-3.2,1.8,3.79,3.79,0,0,1-3.4-1.8,3.74,3.74,0,0,1-3.6,1.8H512v-2.7h1.8a2.73,2.73,0,0,0,2.9-2.7c0-.5.2-.7.5-.7s.2.2.5.7c.2,1.8,1.1,2.7,2.9,2.7a3.33,3.33,0,0,0,2.3-.7,8.42,8.42,0,0,0,.7-1.8c0-.5.2-.7.5-.7s.2.2.5.7q.3,2.7,2.7,2.7c1.8,0,2.5-.5,2.5-1.1a4,4,0,0,0-1.4-2.5l1.1-2c.2-.2.2-.5.5-.5s.2.2.5.5c.1,1,.3,2.2.3,3.1Zm-7.7-8.2-1.6,1.6-1.6-1.8,1.6-1.6Zm2-3.6-1.6,1.6-1.6-1.6,1.6-1.6Zm2.1,3.6-1.6,1.6-1.6-1.6,1.6-1.6Z" transform="translate(0 0)"/></g><g id="G_49" data-name="G 49"><path id="PATH_50" data-name="PATH 50" d="M257.94,559.53h-1.1a4.38,4.38,0,0,1-3.2-.9c0,.2.2.7.2,1.1,0,2.3-.7,3.6-2.3,3.6a3.72,3.72,0,0,1-3.2-2,7.26,7.26,0,0,1-.9-3.9v-.9h-.7a4.51,4.51,0,0,0-3.2,1.1,62.32,62.32,0,0,1,.7,8.2,9.27,9.27,0,0,1-.7,3.2c-.2.5-.2.7-.5.7,0,0-.2-.2-.2-.9l-1.1-10.4a3.17,3.17,0,0,1,.7-1.8,11.43,11.43,0,0,1,1.4-1.6,4.64,4.64,0,0,1,1.8-.7,6.52,6.52,0,0,1,1.8-.2h.5l.2-1.4a1.23,1.23,0,0,1,.2-.5,1,1,0,0,1,.5.2c1.8,1.6,3.2,2.7,3.9,3.2a6.86,6.86,0,0,0,3.6,1.4h1.4v2.5Zm-5.2-.3c0-.7-.5-1.4-1.4-2.3-.2-.2-.9-.9-2.5-2.3V556a4.53,4.53,0,0,0,.7,2.7c.5,1.1,1.1,1.6,2,1.6.7.3,1.2-.2,1.2-1.1Z" transform="translate(0 0)"/><path id="PATH_51" data-name="PATH 51" d="M263.34,554.93c0,2.9-1.6,4.5-4.5,4.5H257v-2.7h1.6c2.3,0,3.4-.5,3.4-1.1a4.63,4.63,0,0,0-1.6-2.7l.9-2.3a.2.2,0,0,1,.2-.2l.5.5A7.32,7.32,0,0,1,263.34,554.93Zm-1.8,9.5-1.8,1.8-1.8-1.8,1.8-1.8Zm3.8,0-1.8,1.8-1.8-1.8,1.8-1.8Z" transform="translate(0 0)"/><path id="PATH_52" data-name="PATH 52" d="M279.44,559.53h-.9a2.76,2.76,0,0,1-1.8-.5v.7a11.33,11.33,0,0,1-2,6.1c-1.1,1.8-2.3,2.5-2.9,2.5a30.3,30.3,0,0,1-4.5-.2.38.38,0,1,1,0-.4,17.08,17.08,0,0,0,5.4-2.7c1.8-1.6,2.9-3.2,2.9-4.8,0-.9-.7-2.3-2.3-3.9l1.1-2a.2.2,0,0,1,.2-.2l.2.2c.7.9,1.1,1.6,1.6,1.8a4.47,4.47,0,0,0,2.5.9h.7v2.5Z" transform="translate(0 0)"/><path id="PATH_53" data-name="PATH 53" d="M293.44,538.63a13.1,13.1,0,0,1-.9,2.5l-5.7,1.8c-2.5.9-4.3,1.6-5.2,2,1.8,1.8,2.9,3.2,3.6,3.9a10,10,0,0,1,2,4.5,6.76,6.76,0,0,1-.5,3.2c-.7,2-3.2,2.9-7,2.9h-1.1v-2.7H280a19,19,0,0,0,3.9-.2c1.6-.5,2.5-1.1,2.5-2.3,0-1.6-1.1-3.4-3.6-5.7l-.2.5a6.67,6.67,0,0,1-1.1-1.4,3.61,3.61,0,0,1-.9-1.4,6.89,6.89,0,0,1,.2-1.8,3.41,3.41,0,0,1,.7-1.6,22.11,22.11,0,0,1,4.8-1.8,54.09,54.09,0,0,1,7.1-2.4Z" transform="translate(0 0)"/><path id="PATH_54" data-name="PATH 54" d="M324.94,553.33c0,2.5-1.6,4.3-4.5,5.2-2,.7-5,.9-9.1.9a16.82,16.82,0,0,1-3.6-.2,5.51,5.51,0,0,1-3.4-2.7,1.23,1.23,0,0,0-.2-.5h0a1,1,0,0,1,.5.2,10.44,10.44,0,0,0,4.3.7,2.57,2.57,0,0,0,1.4-.2,1.24,1.24,0,0,0,.2-1.4v-5.2c-.2-3.9-.5-7-.9-10l1.6-1.6.2-.2a.77.77,0,0,1,.2.5,14.26,14.26,0,0,0,.9,2.7,1.23,1.23,0,0,0,.2.5h-1.2c.2,4.1.2,6.6.2,7.2v2.5a14,14,0,0,1-.7,3.9c.2,0,.7-.5,1.8-1.4a32.92,32.92,0,0,1,3.2-2.7,8.69,8.69,0,0,1,4.3-1.4,3.56,3.56,0,0,1,2.7.9A2.08,2.08,0,0,1,324.94,553.33Zm-1.6,1.4a2.09,2.09,0,0,0-1.4-1.8,4.11,4.11,0,0,0-2.3-.7c-1.6,0-4.3,1.4-7.7,4.3.9,0,2,.2,2.9.2a24.77,24.77,0,0,0,4.5-.5C322,556.13,323.34,555.43,323.34,554.73Z" transform="translate(0 0)"/><path id="PATH_55" data-name="PATH 55" d="M334,559.53h-1.6a3.4,3.4,0,0,1-3.4-2,9.85,9.85,0,0,1-.7-4.3v-4.3c0-2-.2-5-.5-8.8l1.4-1.6c.2-.2.5-.2.5,0a83.89,83.89,0,0,1,.5,8.8v6.6a2.39,2.39,0,0,0,2.7,2.7H334v2.9Z" transform="translate(0 0)"/><path id="PATH_56" data-name="PATH 56" d="M339.24,554.93c0,2.9-1.6,4.5-4.5,4.5h-1.9v-2.7h1.6c2.3,0,3.4-.5,3.4-1.1a4.63,4.63,0,0,0-1.6-2.7l.9-2.3a.2.2,0,0,1,.2-.2l.5.5A6.71,6.71,0,0,1,339.24,554.93Zm-.7,9.5-1.8,1.8-1.8-1.8,1.8-1.8Z" transform="translate(0 0)"/><path id="PATH_57" data-name="PATH 57" d="M350.74,559.73a11.2,11.2,0,0,1-2,6.3c-1.1,1.6-2.3,2.5-2.9,2.5a30.3,30.3,0,0,1-4.5-.2.38.38,0,1,1,0-.4,17.08,17.08,0,0,0,5.4-2.7c1.8-1.6,2.9-3.2,2.9-4.8,0-.9-.7-2.3-2.3-3.9l1.1-2a.2.2,0,0,1,.2-.2l.2.2a8.56,8.56,0,0,1,1.4,2.7,6.55,6.55,0,0,1,.5,2.5Z" transform="translate(0 0)"/></g><g id="G_58" data-name="G 58"><path id="PATH_59" data-name="PATH 59" d="M266.94,621.13a7.14,7.14,0,0,1,.2,2,7.42,7.42,0,0,1-.5,2.5,7.17,7.17,0,0,1-4.1,3.9,15.23,15.23,0,0,1-5.7,1.1,8.68,8.68,0,0,1-5-1.4,5.22,5.22,0,0,1-2-4.5,9.37,9.37,0,0,1,.7-3.4,11.07,11.07,0,0,1,1.1-2,.78.78,0,0,1,.5-.2.18.18,0,0,1,.2.2v.5a8.47,8.47,0,0,0-.9,3.9,5.19,5.19,0,0,0,1.1,2.9c.9,1.1,2.5,1.6,4.5,1.6a16.77,16.77,0,0,0,5.9-1.1,5.3,5.3,0,0,0,2.7-2.3,1.49,1.49,0,0,0,.2-.9,7.36,7.36,0,0,0-.5-2.3,21,21,0,0,0-2-3.6l.9-1.8a.78.78,0,0,0,.2-.5.2.2,0,0,1,.2.2,10,10,0,0,1,2.3,5.2Zm-6.5-9.8-1.8,1.8-1.8-1.8,1.8-1.8Z" transform="translate(0 0)"/><path id="PATH_60" data-name="PATH 60" d="M276.24,621.53h-1.6a3.4,3.4,0,0,1-3.4-2,9.85,9.85,0,0,1-.7-4.3v-4.3c0-2-.2-5-.5-8.8l1.4-1.6c.2-.2.5-.2.5,0a83.89,83.89,0,0,1,.5,8.8v6.6a2.39,2.39,0,0,0,2.7,2.7h1.1v2.9Z" transform="translate(0 0)"/><path id="PATH_61" data-name="PATH 61" d="M287.34,621.53h-1.8a4.85,4.85,0,0,1-4.3-2c-.7,1.4-2.3,2-4.8,2h-1.1v-2.7h2c2.3,0,3.4-.9,3.6-2.5,0-.7.2-1.1.5-1.1s.5.5.5,1.1c.2,1.6,1.4,2.5,3.4,2.5h2v2.7Zm-7.7-13.1-1.8,1.8-1.8-1.8,1.8-1.8Zm3.9,0-1.8,1.8-1.8-1.8,1.8-1.8Z" transform="translate(0 0)"/><path id="PATH_62" data-name="PATH 62" d="M305.24,616.53a5.25,5.25,0,0,1-.9,3.4,3.91,3.91,0,0,1-2.9,1.6,3.47,3.47,0,0,1-3.2-1.8,3.33,3.33,0,0,1-3.2,1.8,3.79,3.79,0,0,1-3.4-1.8,3.74,3.74,0,0,1-3.6,1.8h-1.6v-2.7h1.8a2.73,2.73,0,0,0,2.9-2.7c0-.5.2-.7.5-.7s.2.2.5.7c.2,1.8,1.1,2.7,2.9,2.7a3.33,3.33,0,0,0,2.3-.7,8.42,8.42,0,0,0,.7-1.8c0-.5.2-.7.5-.7s.2.2.5.7q.3,2.7,2.7,2.7c1.8,0,2.5-.5,2.5-1.1a4.27,4.27,0,0,0-1.4-2.5l1.1-2c.2-.2.2-.5.5-.5s.2.2.5.5c-.2,1.1.3,2.2.3,3.1Z" transform="translate(0 0)"/><path id="PATH_63" data-name="PATH 63" d="M316.84,621.73a11.2,11.2,0,0,1-2,6.3c-1.1,1.6-2.3,2.5-2.9,2.5a30.3,30.3,0,0,1-4.5-.2.38.38,0,1,1,0-.4,17.08,17.08,0,0,0,5.4-2.7c1.8-1.6,2.9-3.2,2.9-4.8,0-.9-.7-2.3-2.3-3.9l1.1-2a.2.2,0,0,1,.2-.2l.2.2a8.56,8.56,0,0,1,1.4,2.7,9.23,9.23,0,0,1,.5,2.5Z" transform="translate(0 0)"/><path id="PATH_64" data-name="PATH 64" d="M325.84,621.53h-1.6a3.4,3.4,0,0,1-3.4-2,9.85,9.85,0,0,1-.7-4.3v-4.3c0-2-.2-5-.5-8.8l1.4-1.6c.2-.2.5-.2.5,0a83.89,83.89,0,0,1,.5,8.8v6.6a2.39,2.39,0,0,0,2.7,2.7h1.1v2.9Z" transform="translate(0 0)"/><path id="PATH_65" data-name="PATH 65" d="M339.94,621.53h-1.1a6.55,6.55,0,0,0-2.5.5c-1.1.5-1.8,1.1-1.8,2.3,0,1.4.9,2.5,2.7,3.6l-1.1,2.3a13.07,13.07,0,0,1-5.2-3.2,7.54,7.54,0,0,1-2.7-5.7H325v-2.7h2.9a16.15,16.15,0,0,1,1.4-5.9c.9-2,1.6-2.9,2-2.9s1.1.9,1.8,2.9a10.52,10.52,0,0,1,.9,3.6q0,4.8-4.8,4.8a7,7,0,0,0,1.4,2.7,6.72,6.72,0,0,0,2.5,2v-.9a8.91,8.91,0,0,1,1.1-4.1,5.16,5.16,0,0,1,4.5-2.5h.9v3.2Zm-7.1-3.6a6.79,6.79,0,0,0-.7-2.5c-.5-1.4-.9-1.8-1.4-1.8-.2,0-.7.5-1.1,1.6a9.69,9.69,0,0,0-.7,3.9c2.8-.3,3.9-.5,3.9-1.2Z" transform="translate(0 0)"/><path id="PATH_66" data-name="PATH 66" d="M345.34,617c0,2.9-1.6,4.5-4.5,4.5H339v-2.7h1.6c2.3,0,3.4-.5,3.4-1.1a4.63,4.63,0,0,0-1.6-2.7l.9-2.3a.2.2,0,0,1,.2-.2l.5.5A7.91,7.91,0,0,1,345.34,617Zm-.9,9.5-1.8,1.8-1.8-1.8,1.8-1.8Z" transform="translate(0 0)"/></g><g id="TEXT_67" data-name="TEXT 67"><path id="PATH_66-2" data-name="PATH 66-2" d="M629.14,658.43a3.2,3.2,0,0,1,.1.7c0,.1-.2,0-.6-.2a5.7,5.7,0,0,0-6.8,1.3c-1.1,1.1-1.6,1.9-1.6,2.5s1,1.3,3.1,1.7c2.3.4,3.6,1,4,1.7.1.1.1.4.1.7a6.15,6.15,0,0,1-4.6,6.1,19.15,19.15,0,0,1-7.4,1.3,7.73,7.73,0,0,1-4.9-1.5,5.41,5.41,0,0,1-2.1-4.5,9.47,9.47,0,0,1,2.1-5.9,1.33,1.33,0,0,1,.6-.5c.2,0,.3,0,.3.2a3.93,3.93,0,0,1-.2.6,9.15,9.15,0,0,0-1.3,4.5,4.3,4.3,0,0,0,1.1,2.8,6.12,6.12,0,0,0,4.7,1.7,24.14,24.14,0,0,0,5.8-.7c2.9-.7,4.4-1.6,4.4-2.8,0-.4-1.4-1-4.3-1.5a5.59,5.59,0,0,1-2.2-.7,1.69,1.69,0,0,1-.8-1.7c0-1.5.8-3.2,2.3-5.2,1.7-2.1,3.3-3.2,4.9-3.2a3,3,0,0,1,3.3,2.6Z" transform="translate(0 0)"/><path id="PATH_67" data-name="PATH 67" d="M640.74,666.93a10.31,10.31,0,0,1-2.1,6.2c-1.2,1.7-2.2,2.5-3,2.5a29.9,29.9,0,0,1-4.5-.3q-.6-.15-.6-.3c0-.1.2-.3.6-.3a11.91,11.91,0,0,0,5.3-2.8c1.9-1.6,2.9-3.2,2.9-4.7,0-1-.8-2.3-2.4-3.8l1-2.1a1.24,1.24,0,0,1,.2-.3q.15,0,.3.3a15,15,0,0,1,1.5,2.6,9.56,9.56,0,0,1,.8,3Z" transform="translate(0 0)"/></g><g id="G_68" data-name="G 68"><path id="PATH_69" data-name="PATH 69" d="M910.24,778.53h-1.1a6.87,6.87,0,0,1-2.3-.2c0,.7.2,1.1.2,1.8a5.83,5.83,0,0,1-.5,2.5,7.17,7.17,0,0,1-4.1,3.9,15.23,15.23,0,0,1-5.7,1.1,8.68,8.68,0,0,1-5-1.4,5.22,5.22,0,0,1-2-4.5,9.37,9.37,0,0,1,.7-3.4,11.07,11.07,0,0,1,1.1-2,.78.78,0,0,1,.5-.2.18.18,0,0,1,.2.2v.5a8.47,8.47,0,0,0-.9,3.9,5.19,5.19,0,0,0,1.1,2.9c.9,1.1,2.5,1.6,4.5,1.6a16.77,16.77,0,0,0,5.9-1.1,5.3,5.3,0,0,0,2.7-2.3c.2-.2.2-.7,0-1.6a13.24,13.24,0,0,0-.2-1.6,16.42,16.42,0,0,0-2.3-3.4l.9-1.8a.78.78,0,0,0,.2-.5.2.2,0,0,1,.2.2q1.65,2.7,3.6,2.7h1.8v2.7Zm-10-10.2-1.8,1.8-1.8-1.8,1.8-1.8Z" transform="translate(0 0)"/><path id="PATH_70" data-name="PATH 70" d="M921.34,778.53h-1.8a4.85,4.85,0,0,1-4.3-2c-.7,1.4-2.3,2-4.8,2H909v-2.7h2c2.3,0,3.4-.9,3.6-2.5,0-.7.2-1.1.5-1.1s.5.5.5,1.1c.2,1.6,1.4,2.5,3.4,2.5h2v2.7Zm-7.5,5-1.8,1.8-1.8-1.8,1.8-1.8Zm4.1,0-1.8,1.8-1.8-1.8,1.8-1.8Z" transform="translate(0 0)"/><path id="PATH_71" data-name="PATH 71" d="M932.64,774a5.57,5.57,0,0,1-.5,2.9c-.5,1.1-1.1,1.8-1.8,1.8-1.1,0-2.9-.7-5.2-2.3a8.72,8.72,0,0,1-1.4,1.6,3.69,3.69,0,0,1-2.3.7h-1.1V776h1.6a3.59,3.59,0,0,0,2.7-1.6,32,32,0,0,0,2-2.9,3,3,0,0,1,2.3-1.6,3.06,3.06,0,0,1,2.7,1.6A3.24,3.24,0,0,1,932.64,774Zm-1.4,1.5a4.62,4.62,0,0,0-.7-2.3c-.5-.9-1.1-1.4-1.8-1.4s-1.4.7-2.3,2a8.62,8.62,0,0,0,2,1.4,5.25,5.25,0,0,0,2.3.7C931,776.23,931.24,776,931.24,775.53Z" transform="translate(0 0)"/><path id="PATH_72" data-name="PATH 72" d="M937.84,775.83a4.3,4.3,0,0,1-.7,2.5,1.56,1.56,0,0,1-.5.7s-.2-.2-.2-.9c0-2.7-.5-9.1-1.4-19.3l1.8-1.8.2-.2v.5c.8,2.8.8,9,.8,18.5Z" transform="translate(0 0)"/><path id="PATH_73" data-name="PATH 73" d="M949.44,778.73a11.2,11.2,0,0,1-2,6.3c-1.1,1.6-2.3,2.5-2.9,2.5a30.3,30.3,0,0,1-4.5-.2.38.38,0,1,1,0-.4,17.08,17.08,0,0,0,5.4-2.7c1.8-1.6,2.9-3.2,2.9-4.8,0-.9-.7-2.3-2.3-3.9l1.1-2a.2.2,0,0,1,.2-.2l.2.2a8.56,8.56,0,0,1,1.4,2.7,9.23,9.23,0,0,1,.5,2.5Z" transform="translate(0 0)"/><path id="PATH_74" data-name="PATH 74" d="M961.14,777.63a11.68,11.68,0,0,1-3.4,8.6c-.7.7-1.1,1.1-1.4,1.1a22.74,22.74,0,0,1-4.3-.5c-.7,0-.9-.2-.9-.2a3.19,3.19,0,0,1,.9-.5,15,15,0,0,0,5.2-2.9c.7-.7,1.4-1.1,1.8-2a4.48,4.48,0,0,0,1.1-2.5V778h-2.9c-2,0-3.2-.9-3.2-2.5a7.36,7.36,0,0,1,.9-3.6c.7-1.4,1.6-2.3,2.5-2.3,1.4,0,2.5.9,3.2,2.9a28.44,28.44,0,0,1,.5,5.1Zm-1.8-1.8a3.06,3.06,0,0,0-.7-2,2.24,2.24,0,0,0-1.8-1.1,1.29,1.29,0,0,0-1.1.5,2.22,2.22,0,0,0-.5,1.1c0,1.1.7,1.6,2.3,1.6A14.38,14.38,0,0,0,959.34,775.83Z" transform="translate(0 0)"/></g><g id="G_75" data-name="G 75"><path id="PATH_76" data-name="PATH 76" d="M909.54,648a4.3,4.3,0,0,1-.7,2.5,1.56,1.56,0,0,1-.5.7s-.2-.2-.2-.9c0-2.7-.5-9.1-1.4-19.3l1.8-1.8.2-.2v.5c.6,3.1.8,9.2.8,18.5Z" transform="translate(0 0)"/><path id="PATH_77" data-name="PATH 77" d="M923.54,651H921a11.66,11.66,0,0,1-3.6,7.9c-.7.7-1.1,1.1-1.4,1.1a25.83,25.83,0,0,1-4.3-.5,2.23,2.23,0,0,1-.9-.2,3.19,3.19,0,0,1,.9-.5,18.43,18.43,0,0,0,5.2-2.7c.7-.7,1.4-1.1,1.8-2a4.48,4.48,0,0,0,1.1-2.5v-.7h-2.9c-2.3,0-3.2-.9-3.2-2.7a7.36,7.36,0,0,1,.9-3.6c.7-1.4,1.6-2.3,2.5-2.3,1.1,0,2,.7,2.7,2.3a8.7,8.7,0,0,1,.9,3.6h2.5v2.7h.3v.1Zm-4-2.8a3.06,3.06,0,0,0-.7-2,1.85,1.85,0,0,0-1.8-1.1,1.29,1.29,0,0,0-1.1.5,1.47,1.47,0,0,0-.5,1.4c0,1.1.9,1.6,2.7,1.6,0-.4.7-.4,1.4-.4Z" transform="translate(0 0)"/><path id="PATH_78" data-name="PATH 78" d="M944.44,651H943a3.47,3.47,0,0,1-3.2-1.8,2.71,2.71,0,0,1-2.9,1.8,3.22,3.22,0,0,1-2.9-1.8,2.86,2.86,0,0,1-2.9,1.8,3.79,3.79,0,0,1-3.4-1.8,3.74,3.74,0,0,1-3.6,1.8h-1.6v-2.7h1.8a2.73,2.73,0,0,0,2.9-2.7c0-.5.2-.7.5-.7s.2.2.5.7c.2,1.8,1.1,2.7,2.9,2.7a2.47,2.47,0,0,0,2.7-2.7c0-.5.2-.7.5-.7s.5.2.5.7c.2,1.8,1.1,2.7,2.3,2.7a2.47,2.47,0,0,0,2.7-2.7c0-.5.2-.7.5-.7s.5.2.5.7q.3,2.7,2.7,2.7h1.4V651ZM934,639.43l-1.6,1.6-1.6-1.6,1.6-1.6Zm1.8-3.4-1.6,1.6-1.6-1.6,1.6-1.6Zm2,3.4-1.6,1.6-1.6-1.6,1.6-1.6Z" transform="translate(0 0)"/><path id="PATH_79" data-name="PATH 79" d="M955.54,651h-1.8a4.85,4.85,0,0,1-4.3-2c-.7,1.4-2.3,2-4.8,2h-1.1v-2.7h2c2.3,0,3.4-.9,3.6-2.5,0-.7.2-1.1.5-1.1s.5.5.5,1.1c.2,1.6,1.4,2.5,3.4,2.5h2V651Zm-7.5,5-1.8,1.8-1.8-1.8,1.8-1.8Zm4.1,0-1.8,1.8-1.8-1.8,1.8-1.8Z" transform="translate(0 0)"/><path id="PATH_80" data-name="PATH 80" d="M960.94,646.43c0,2.9-1.6,4.5-4.5,4.5h-1.8v-2.7h1.6c2.3,0,3.4-.5,3.4-1.1a4.37,4.37,0,0,0-1.6-2.7l.9-2.3a.2.2,0,0,1,.2-.2l.5.5a6.2,6.2,0,0,1,1.3,4Zm-5.2,8.9,1.6-1.6,1.6,1.6-1.6,1.6Zm2,3.6,1.6-1.6,1.6,1.6-1.6,1.6Zm1.8-3.6,1.6-1.6,1.6,1.6-1.6,1.6Z" transform="translate(0 0)"/></g><g id="G_81" data-name="G 81"><path id="PATH_82" data-name="PATH 82" d="M823.44,603.43h-1.6a6.12,6.12,0,0,1-3.6-1.8,24.85,24.85,0,0,1-2.7-3.4c0,1.6-.2,2.7-.9,3.4-1.1,1.4-3.4,2-6.8,2h-4.5c-5.4,0-8.4-1.6-8.4-4.8a7.55,7.55,0,0,1,1.1-3.4l.5-.5a.18.18,0,0,1,.2.2v.5a11.53,11.53,0,0,0-.5,2,2.4,2.4,0,0,0,1.1,2c1.1.9,2.9,1.4,5.4,1.4h4.5a19.21,19.21,0,0,0,5.2-.5c1.1-.5,1.6-1.1,1.6-2a6,6,0,0,0-1.6-3.4,39,39,0,0,0-2.9-2.9,9.46,9.46,0,0,1-1.6-1.6,5.23,5.23,0,0,1,.7-3.2c0-.2,1.6-.7,4.8-1.8s5.9-2,7.9-2.7a12.29,12.29,0,0,1-.7,2.5c-2.5.7-6.1,2-11.1,3.9a61.47,61.47,0,0,1,7.7,8.8,11.11,11.11,0,0,0,2.7,2.7,6.56,6.56,0,0,0,2.3.5h.9v2h.3v.1Z" transform="translate(0 0)"/><path id="PATH_83" data-name="PATH 83" d="M841.14,596.83l-.9,1.8a16.82,16.82,0,0,0-3.6.2c-.9.5-2.3.9-4.1,1.8a23.18,23.18,0,0,1-4.1,1.8,12.91,12.91,0,0,1-4.3.7h-1.6v-2.7h1.8a14.81,14.81,0,0,0,5.4-1.1l5.2-2.3a33.29,33.29,0,0,1-4.1-1.4,8.8,8.8,0,0,0-2.9-.9,5.19,5.19,0,0,0-2.7,1.1.69.69,0,0,1-.5.2c-.3,0-.2,0-.2-.2v-.2c.7-2.3,2-3.2,3.9-3.2a5.29,5.29,0,0,1,2.5.7c1.8.9,3.2,1.4,4.1,1.8a18,18,0,0,0,5.4.9c.5,0,.7,0,.7.2.2.4.2.6,0,.8Zm-12.5,10.9,1.6-1.6,1.6,1.6-1.6,1.6Zm2.1,3.4,1.6-1.6,1.6,1.6-1.6,1.6Zm2-3.4,1.6-1.6,1.6,1.6-1.6,1.6Z" transform="translate(0 0)"/><path id="PATH_84" data-name="PATH 84" d="M855.44,603.43h-.9a2.76,2.76,0,0,1-1.8-.5v.7a11.33,11.33,0,0,1-2,6.1c-1.1,1.8-2.3,2.5-2.9,2.5a30.3,30.3,0,0,1-4.5-.2.38.38,0,1,1,0-.4,17.08,17.08,0,0,0,5.4-2.7c1.8-1.6,2.9-3.2,2.9-4.8,0-.9-.7-2.3-2.3-3.9l1.1-2a.2.2,0,0,1,.2-.2l.2.2c.7.9,1.1,1.6,1.6,1.8a4.47,4.47,0,0,0,2.5.9h.7v2.5Z" transform="translate(0 0)"/><path id="PATH_85" data-name="PATH 85" d="M864.24,597.13c0,2-.2,3.4-.7,4.1-1.1,1.6-2.9,2.3-5.9,2.3h-3.2v-2.7h2.3c3.9,0,5.9-.7,6.3-1.8a1.76,1.76,0,0,0-.2-1.4,13.22,13.22,0,0,1-2.9.2c-2,0-3.2-.9-3.2-2.7a6.88,6.88,0,0,1,.9-3.6,3,3,0,0,1,2.7-2,3.28,3.28,0,0,1,2.5,1.8,11.85,11.85,0,0,1,1.4,5.8Zm-4.3-12.3-1.8,1.8-1.8-1.8,1.8-1.8Zm2.7,10.2a3.06,3.06,0,0,0-.7-2,2,2,0,0,0-1.8-.9,2.65,2.65,0,0,0-1.4.5c-.5.2-.5.7-.5,1.1,0,.9.7,1.4,2.3,1.4a5.19,5.19,0,0,0,2.1-.1Zm1.1-10.2-1.8,1.8-1.8-1.8,1.8-1.8Z" transform="translate(0 0)"/></g><g id="G_86" data-name="G 86"><path id="PATH_87" data-name="PATH 87" d="M925.84,541.33h-.9a3.56,3.56,0,0,1-2.5-.7,2.84,2.84,0,0,1-1.1-2.3c-2.5,2.3-6.3,3.4-11.6,3.4s-8.2-1.6-8.2-5a5.55,5.55,0,0,1,1.4-3.4.69.69,0,0,1,.5-.2c.3,0,.2,0,.2.2v.5a8.35,8.35,0,0,0-.5,2c0,2.3,2.5,3.4,7.5,3.4,5.7,0,9.5-1.1,11.3-3.6.5-.5.7-.7.9-.7s.2.2.2.5a1.83,1.83,0,0,1-.2.9c0,.5-.2.7-.2.9,0,1.1.9,1.8,2.5,1.8h.9v2.3Zm-14-13.1L910,530l-1.8-1.8,1.8-1.8Zm3.8,0-1.8,1.8-1.8-1.8,1.8-1.8Z" transform="translate(0 0)"/><path id="PATH_88" data-name="PATH 88" d="M943.74,536.63a5.25,5.25,0,0,1-.9,3.4,3.91,3.91,0,0,1-2.9,1.6,3.47,3.47,0,0,1-3.2-1.8,3.33,3.33,0,0,1-3.2,1.8,3.79,3.79,0,0,1-3.4-1.8,3.74,3.74,0,0,1-3.6,1.8h-1.6v-2.7h1.8a2.73,2.73,0,0,0,2.9-2.7c0-.5.2-.7.5-.7s.2.2.5.7c.2,1.8,1.1,2.7,2.9,2.7a3.33,3.33,0,0,0,2.3-.7,8.42,8.42,0,0,0,.7-1.8c0-.5.2-.7.5-.7s.2.2.5.7q.3,2.7,2.7,2.7c1.8,0,2.5-.5,2.5-1.1a4,4,0,0,0-1.4-2.5l1.1-2c.2-.2.2-.5.5-.5s.2.2.5.5c-.2.8.3,2.2.3,3.1Zm-7.7-8.4-1.6,1.6-1.6-1.6,1.6-1.6Zm2-3.4-1.6,1.6-1.6-1.6,1.6-1.6Zm2.1,3.6-1.6,1.6-1.6-1.6,1.6-1.6Z" transform="translate(0 0)"/><path id="PATH_89" data-name="PATH 89" d="M961.44,541.33h-.9a2.94,2.94,0,0,1-2.3-.9,7,7,0,0,1-1.4-1.8,5.06,5.06,0,0,1-1.8,2,7.73,7.73,0,0,1-3.9.7c-3.2,0-4.8-1.1-4.8-3.4a4.11,4.11,0,0,1,.7-2.3c.2-.2.2-.5.5-.5s.2.2.2.5V537c0,1.4,1.1,2,3.4,2,3.2,0,4.8-.7,4.8-1.8q0-1.05-2.7-7.5l.9-1.8a.78.78,0,0,0,.2-.5.77.77,0,0,1,.2.5c.7,1.8,1.8,4.5,3.2,8.2.7,1.8,1.6,2.7,2.9,2.7h.7l.1,2.5Z" transform="translate(0 0)"/><path id="PATH_90" data-name="PATH 90" d="M975.44,520.53a13.1,13.1,0,0,1-.9,2.5l-5.7,1.8c-2.5.9-4.3,1.6-5.2,2,1.8,1.8,2.9,3.2,3.6,3.9a10,10,0,0,1,2,4.5,6.76,6.76,0,0,1-.5,3.2c-.7,2-3.2,2.9-7,2.9h-1.1v-2.7H962a19,19,0,0,0,3.9-.2c1.6-.5,2.5-1.1,2.5-2.3,0-1.6-1.1-3.4-3.6-5.7l-.2.5a6.67,6.67,0,0,1-1.1-1.4,3.61,3.61,0,0,1-.9-1.4,6.89,6.89,0,0,1,.2-1.8,3.41,3.41,0,0,1,.7-1.6,22.11,22.11,0,0,1,4.8-1.8A49.56,49.56,0,0,1,975.44,520.53Z" transform="translate(0 0)"/><path id="PATH_91" data-name="PATH 91" d="M983.34,541.33h-1.6a3.4,3.4,0,0,1-3.4-2,9.85,9.85,0,0,1-.7-4.3v-4.3c0-2-.2-5-.5-8.8l1.4-1.6c.2-.2.5-.2.5,0a83.89,83.89,0,0,1,.5,8.8v6.6a2.39,2.39,0,0,0,2.7,2.7h1.1v2.9Z" transform="translate(0 0)"/><path id="PATH_92" data-name="PATH 92" d="M988.84,537c0,2.9-1.6,4.5-4.5,4.5h-1.8v-2.7h1.6c2.3,0,3.4-.5,3.4-1.1a4.63,4.63,0,0,0-1.6-2.7l.9-2.3a.2.2,0,0,1,.2-.2l.5.5a6.83,6.83,0,0,1,1.3,4Zm-5.5,8.9,1.6-1.6,1.6,1.6-1.6,1.6Zm2.1,3.6,1.6-1.6,1.6,1.6-1.6,1.6Zm2-3.6,1.6-1.6,1.6,1.6-1.6,1.6Z" transform="translate(0 0)"/></g><g id="G_93" data-name="G 93"><path id="PATH_94" data-name="PATH 94" d="M813.74,363.83a7.14,7.14,0,0,1,.2,2,7.42,7.42,0,0,1-.5,2.5,7.17,7.17,0,0,1-4.1,3.9,15.23,15.23,0,0,1-5.7,1.1,8.68,8.68,0,0,1-5-1.4,5.22,5.22,0,0,1-2-4.5,9.37,9.37,0,0,1,.7-3.4,11.07,11.07,0,0,1,1.1-2,.78.78,0,0,1,.5-.2.18.18,0,0,1,.2.2v.5a8.47,8.47,0,0,0-.9,3.9,4.93,4.93,0,0,0,1.1,2.9c.9,1.1,2.5,1.6,4.5,1.6a16.77,16.77,0,0,0,5.9-1.1,5.3,5.3,0,0,0,2.7-2.3,1.49,1.49,0,0,0,.2-.9,7.36,7.36,0,0,0-.5-2.3,21,21,0,0,0-2-3.6l.9-1.8a.78.78,0,0,0,.2-.5.2.2,0,0,1,.2.2,9.06,9.06,0,0,1,2.3,5.2Zm-6.6-10-1.8,1.8-1.8-1.8,1.8-1.8Z" transform="translate(0 0)"/><path id="PATH_95" data-name="PATH 95" d="M819.14,361.33a4.3,4.3,0,0,1-.7,2.5,1.56,1.56,0,0,1-.5.7s-.2-.2-.2-.9c0-2.7-.5-9.1-1.4-19.3l1.8-1.8.2-.2v.5c.8,2.9.8,9,.8,18.5Z" transform="translate(0 0)"/><path id="PATH_96" data-name="PATH 96" d="M833.44,364h-.9a2.76,2.76,0,0,1-1.8-.5v.7a11.33,11.33,0,0,1-2,6.1c-1.1,1.8-2.3,2.5-2.9,2.5a30.3,30.3,0,0,1-4.5-.2.38.38,0,1,1,0-.4,17.08,17.08,0,0,0,5.4-2.7c1.8-1.6,2.9-3.2,2.9-4.8,0-.9-.7-2.3-2.3-3.9l1.1-2a.2.2,0,0,1,.2-.2l.2.2c.7.9,1.1,1.6,1.6,1.8a4.47,4.47,0,0,0,2.5.9h.7V364Z" transform="translate(0 0)"/><path id="PATH_97" data-name="PATH 97" d="M847.44,364h-1.1a6.55,6.55,0,0,0-2.5.5c-1.1.5-1.8,1.1-1.8,2.3,0,1.4.9,2.5,2.7,3.6l-1.1,2.3a13.07,13.07,0,0,1-5.2-3.2,7.54,7.54,0,0,1-2.7-5.7h-3.2v-2.7h2.9a16.15,16.15,0,0,1,1.4-5.9c.9-2,1.6-2.9,2-2.9s1.1.9,1.8,2.9a10.52,10.52,0,0,1,.9,3.6q0,4.8-4.8,4.8a7,7,0,0,0,1.4,2.7,6.72,6.72,0,0,0,2.5,2v-.9a8.91,8.91,0,0,1,1.1-4.1,5.16,5.16,0,0,1,4.5-2.5h.9V364Zm-7-3.6a6.79,6.79,0,0,0-.7-2.5c-.5-1.4-.9-1.8-1.4-1.8-.2,0-.7.5-1.1,1.6a11.78,11.78,0,0,0-.7,3.9C839.34,361.33,840.44,361.13,840.44,360.43Z" transform="translate(0 0)"/><path id="PATH_98" data-name="PATH 98" d="M852.94,359.53c0,2.9-1.6,4.5-4.5,4.5h-1.8v-2.7h1.6c2.3,0,3.4-.5,3.4-1.1a4.37,4.37,0,0,0-1.6-2.7l.9-2.3a.2.2,0,0,1,.2-.2l.5.5a6.83,6.83,0,0,1,1.3,4Zm-2.1-10-1.8,1.8-1.8-1.8,1.8-1.8Zm3.9,0-1.8,1.8-1.8-1.8,1.8-1.8Z" transform="translate(0 0)"/></g><g id="G_99" data-name="G 99"><path id="PATH_100" data-name="PATH 100" d="M820.34,189.63a4,4,0,0,1-1.6,3.6,8.87,8.87,0,0,1-4.1,1.1,32,32,0,0,1-7,.7c-5.9,0-9.1-1.6-9.1-5a5.55,5.55,0,0,1,1.4-3.4c.2-.2.2-.5.5-.5s.2,0,.2.2v.5a8.35,8.35,0,0,0-.5,2c0,2.3,2.9,3.4,8.6,3.4a44.85,44.85,0,0,0,7-.5c2.3-.5,3.2-.9,3.2-1.6,0-.5-.5-1.4-1.6-2.7l1.1-2c.13-.13.3-.13.5,0a8.67,8.67,0,0,1,1.4,4.2Zm-11.4-8.2-1.8,1.8-1.8-1.8,1.8-1.8Zm3.9,0-1.8,1.8-1.8-1.8,1.8-1.8Z" transform="translate(0 0)"/><path id="PATH_101" data-name="PATH 101" d="M829.34,194.63h-1.6a3.4,3.4,0,0,1-3.4-2,9.85,9.85,0,0,1-.7-4.3V184c0-2-.2-5-.5-8.8l1.4-1.6c.2-.2.5-.2.5,0a83.89,83.89,0,0,1,.5,8.8V189a2.39,2.39,0,0,0,2.7,2.7h1.1v2.9Z" transform="translate(0 0)"/><path id="PATH_102" data-name="PATH 102" d="M834.74,190c0,2.9-1.6,4.5-4.5,4.5h-1.8v-2.7H830c2.3,0,3.4-.5,3.4-1.1a4.37,4.37,0,0,0-1.6-2.7l.9-2.3a.2.2,0,0,1,.2-.2l.5.5a6.6,6.6,0,0,1,1.3,4Zm-.2-10.1-1.8,1.8-1.8-1.8,1.8-1.8Z" transform="translate(0 0)"/><path id="PATH_103" data-name="PATH 103" d="M840,191.93a4.3,4.3,0,0,1-.7,2.5,1.56,1.56,0,0,1-.5.7s-.2-.2-.2-.9c0-2.7-.5-9.1-1.4-19.3l1.8-1.8.2-.2v.5c.8,2.8.8,9.2.8,18.5Z" transform="translate(0 0)"/><path id="PATH_104" data-name="PATH 104" d="M854.24,194.63h-.9a2.76,2.76,0,0,1-1.8-.5v.7a11.33,11.33,0,0,1-2,6.1c-1.1,1.8-2.3,2.5-2.9,2.5a30.3,30.3,0,0,1-4.5-.2.38.38,0,1,1,0-.4,17.08,17.08,0,0,0,5.4-2.7c1.8-1.6,2.9-3.2,2.9-4.8,0-.9-.7-2.3-2.3-3.9l1.1-2a.2.2,0,0,1,.2-.2l.2.2c.7.9,1.1,1.6,1.6,1.8a4.47,4.47,0,0,0,2.5.9h.7v2.5Z" transform="translate(0 0)"/><path id="PATH_105" data-name="PATH 105" d="M865.34,194.63h-1.8a4.85,4.85,0,0,1-4.3-2c-.7,1.4-2.3,2-4.8,2H853v-2.7h2c2.3,0,3.4-.9,3.6-2.5,0-.7.2-1.1.5-1.1s.5.5.5,1.1c.2,1.6,1.4,2.5,3.4,2.5h2v2.7Zm-7.5,5-1.8,1.8-1.8-1.8,1.8-1.8Zm3.9,0-1.8,1.8-1.8-1.8,1.8-1.8Z" transform="translate(0 0)"/><path id="PATH_106" data-name="PATH 106" d="M881.44,194.63H880a4.43,4.43,0,0,1-3.2-1.8c-.7,1.8-1.4,2.7-2,2.7a10.89,10.89,0,0,1-3.2-1.1,28.78,28.78,0,0,1-2.5-1.8,4.45,4.45,0,0,1-3.4,2h-1.4v-2.7h1.4a4,4,0,0,0,2.9-1.4c.7-.7,1.4-1.6,2.3-2.5s1.6-1.4,2.3-1.4a2.92,2.92,0,0,1,2.3,1.4c.5.5.9,1.4,2,2.5a3.25,3.25,0,0,0,2.5,1.4h1.4v2.7Zm-6.1-1.8a4.62,4.62,0,0,0-.7-2.3,2.23,2.23,0,0,0-2-1.4c-.7,0-1.6.7-2.5,1.8a16.83,16.83,0,0,0,2,1.4,5,5,0,0,0,2.7.9C875.17,193.1,875.34,193,875.34,192.83Z" transform="translate(0 0)"/><path id="PATH_107" data-name="PATH 107" d="M899.34,189.83a5.25,5.25,0,0,1-.9,3.4,3.91,3.91,0,0,1-2.9,1.6,3.47,3.47,0,0,1-3.2-1.8,3.33,3.33,0,0,1-3.2,1.8,3.79,3.79,0,0,1-3.4-1.8,3.74,3.74,0,0,1-3.6,1.8h-1.6v-2.7h1.8a2.73,2.73,0,0,0,2.9-2.7c0-.5.2-.7.5-.7s.2.2.5.7c.2,1.8,1.1,2.7,2.9,2.7a3.33,3.33,0,0,0,2.3-.7,8.42,8.42,0,0,0,.7-1.8c0-.5.2-.7.5-.7s.2.2.5.7q.3,2.7,2.7,2.7c1.8,0,2.5-.5,2.5-1.1a4.27,4.27,0,0,0-1.4-2.5l1.1-2c.2-.2.2-.5.5-.5s.2.2.5.5a27.18,27.18,0,0,1,.3,3.1Zm-7.7-8.4L890,183l-1.6-1.6,1.6-1.6Zm2-3.4-1.6,1.6-1.6-1.6,1.6-1.6Zm2.1,3.4-1.6,1.6-1.6-1.6,1.6-1.6Z" transform="translate(0 0)"/></g><g id="G_108" data-name="G 108"><path id="PATH_109" data-name="PATH 109" d="M1132.14,188.93H1131a3.47,3.47,0,0,1-3.2-1.8,2.87,2.87,0,0,1-2.9,2,3,3,0,0,1-2.9-2,3.34,3.34,0,0,1-3.2,2,4.4,4.4,0,0,1-1.6-.2c0,1.4-.2,2.7-.2,4.3a7.4,7.4,0,0,1-3.9,3.9,15.23,15.23,0,0,1-5.7,1.1,8.68,8.68,0,0,1-5-1.4,5.22,5.22,0,0,1-2-4.5,9.37,9.37,0,0,1,.7-3.4,11.07,11.07,0,0,1,1.1-2,.78.78,0,0,1,.5-.2.18.18,0,0,1,.2.2v.5a8.47,8.47,0,0,0-.9,3.9,4.93,4.93,0,0,0,1.1,2.9c.9,1.1,2.5,1.6,4.5,1.6a16.77,16.77,0,0,0,5.9-1.1c1.4-.7,2.3-1.4,2.5-2.3.2-.2.2-.7,0-1.6a13.24,13.24,0,0,0-.2-1.6,10.81,10.81,0,0,0-2.3-3.4l.9-1.8a.78.78,0,0,0,.2-.5s.2,0,.2.5a14.18,14.18,0,0,0,1.4,1.8,2.94,2.94,0,0,0,2.3.9,2.7,2.7,0,0,0,2.3-.9,7.29,7.29,0,0,0,.7-2c0-.5.2-.7.5-.7s.2.2.5.7c.2,1.8,1.1,2.9,2.5,2.9a2.47,2.47,0,0,0,2.7-2.7c0-.5.2-.7.5-.7s.5.2.5.7q.3,2.7,2.7,2.7h1.4V189h-.7v-.1Z" transform="translate(0 0)"/><path id="PATH_110" data-name="PATH 110" d="M1137.64,184.43c0,2.9-1.6,4.5-4.5,4.5h-1.8v-2.7h1.6c2.3,0,3.4-.5,3.4-1.1a4.37,4.37,0,0,0-1.6-2.7l.9-2.3a.2.2,0,0,1,.2-.2l.5.5A6.39,6.39,0,0,1,1137.64,184.43Zm-1.8,9.5-1.8,1.8-1.8-1.8,1.8-1.8Zm3.8,0-1.8,1.8-1.8-1.8,1.8-1.8Z" transform="translate(0 0)"/><path id="PATH_111" data-name="PATH 111" d="M1153.44,184.23c0,3.2-2,4.8-6.3,4.8a6,6,0,0,1-3.4-.7,3.19,3.19,0,0,1-1.4-2.9,4.55,4.55,0,0,1,.5-2c.2-.2.2-.5.5-.5s.2.2.2.7v.7a1.73,1.73,0,0,0,1.4,1.8,8.27,8.27,0,0,0,2.5.2c3.4,0,5-.5,5-1.6,0-1.6-2-3.9-5.9-6.6l.7-2.3a.2.2,0,0,1,.2-.2,1,1,0,0,1,.5.2c3.7,2.9,5.5,5.6,5.5,8.4Z" transform="translate(0 0)"/><path id="PATH_112" data-name="PATH 112" d="M1167.54,188.93h-.9a2.76,2.76,0,0,1-1.8-.5v.7a11.33,11.33,0,0,1-2,6.1c-1.1,1.8-2.3,2.5-2.9,2.5a30.3,30.3,0,0,1-4.5-.2.38.38,0,1,1,0-.4,17.08,17.08,0,0,0,5.4-2.7c1.8-1.6,2.9-3.2,2.9-4.8,0-.9-.7-2.3-2.3-3.9l1.1-2a.2.2,0,0,1,.2-.2l.2.2c.7.9,1.1,1.6,1.6,1.8a4.47,4.47,0,0,0,2.5.9h.7v2.5Z" transform="translate(0 0)"/><path id="PATH_113" data-name="PATH 113" d="M1172.94,184.43c0,2.9-1.6,4.5-4.5,4.5h-1.8v-2.7h1.6c2.3,0,3.4-.5,3.4-1.1a4.37,4.37,0,0,0-1.6-2.7l.9-2.3a.2.2,0,0,1,.2-.2l.5.5A5.84,5.84,0,0,1,1172.94,184.43Zm-5.2,8.8,1.6-1.6,1.6,1.6-1.6,1.6Zm2,3.6,1.6-1.6,1.6,1.6-1.6,1.6Zm1.8-3.6,1.6-1.6,1.6,1.6-1.6,1.6Z" transform="translate(0 0)"/></g><g id="G_114" data-name="G 114"><path id="PATH_115" data-name="PATH 115" d="M1179.24,393.43h-.9a2.94,2.94,0,0,1-2.3-.9,7,7,0,0,1-1.4-1.8,5.06,5.06,0,0,1-1.8,2,7.73,7.73,0,0,1-3.9.7c-3.2,0-4.8-1.1-4.8-3.4a4.11,4.11,0,0,1,.7-2.3c.2-.2.2-.5.5-.5s.2.2.2.5v1.4c0,1.4,1.1,2,3.4,2,3.2,0,4.8-.7,4.8-1.8q0-1.05-2.7-7.5l.9-1.8a.78.78,0,0,0,.2-.5.77.77,0,0,1,.2.5c.7,1.8,1.8,4.5,3.2,8.2.7,1.8,1.6,2.7,2.9,2.7h.7l.1,2.5Z" transform="translate(0 0)"/><path id="PATH_116" data-name="PATH 116" d="M1184.74,388.93c0,2.9-1.6,4.5-4.5,4.5h-1.8v-2.7h1.6c2.3,0,3.4-.5,3.4-1.1a4.37,4.37,0,0,0-1.6-2.7l.9-2.3a.2.2,0,0,1,.2-.2l.5.5a7.32,7.32,0,0,1,1.3,4Zm-.2-10.2-1.8,1.8-1.8-1.8,1.8-1.8Z" transform="translate(0 0)"/><path id="PATH_117" data-name="PATH 117" d="M1196.24,392.53a11.68,11.68,0,0,1-3.4,8.6c-.7.7-1.1,1.1-1.4,1.1a22.74,22.74,0,0,1-4.3-.5c-.7,0-.9-.2-.9-.2a3.19,3.19,0,0,1,.9-.5,15,15,0,0,0,5.2-2.9c.7-.7,1.4-1.1,1.8-2a4.48,4.48,0,0,0,1.1-2.5v-.7h-2.9c-2,0-3.2-.9-3.2-2.5a7.36,7.36,0,0,1,.9-3.6c.7-1.4,1.6-2.3,2.5-2.3,1.4,0,2.5.9,3.2,2.9a28.44,28.44,0,0,1,.5,5.1Zm-1.6-1.8a3.06,3.06,0,0,0-.7-2,2.24,2.24,0,0,0-1.8-1.1,1.29,1.29,0,0,0-1.1.5,2.22,2.22,0,0,0-.5,1.1c0,1.1.7,1.6,2.3,1.6.3.2.9-.1,1.8-.1Z" transform="translate(0 0)"/><path id="PATH_118" data-name="PATH 118" d="M1205.34,393.43h-1.6a3.4,3.4,0,0,1-3.4-2,9.85,9.85,0,0,1-.7-4.3v-4.3c0-2-.2-5-.5-8.8l1.4-1.6c.2-.2.5-.2.5,0a83.89,83.89,0,0,1,.5,8.8v6.6a2.39,2.39,0,0,0,2.7,2.7h1.1v2.9Z" transform="translate(0 0)"/><path id="PATH_119" data-name="PATH 119" d="M1216.64,388.93a5.57,5.57,0,0,1-.5,2.9c-.5,1.1-1.1,1.8-1.8,1.8-1.1,0-2.9-.7-5.2-2.3a8.72,8.72,0,0,1-1.4,1.6,3.69,3.69,0,0,1-2.3.7h-1.1v-2.7h1.6a3.59,3.59,0,0,0,2.7-1.6,32,32,0,0,0,2-2.9,3,3,0,0,1,2.3-1.6,3.06,3.06,0,0,1,2.7,1.6,6.57,6.57,0,0,1,1,2.5Zm-1.3,1.6a4.62,4.62,0,0,0-.7-2.3c-.5-.9-1.1-1.4-1.8-1.4s-1.4.7-2.3,2a8.62,8.62,0,0,0,2,1.4,5.25,5.25,0,0,0,2.3.7c.2.3.5.1.5-.4Z" transform="translate(0 0)"/><path id="PATH_120" data-name="PATH 120" d="M1230.44,388.73c0,3.2-2,4.8-6.3,4.8a6,6,0,0,1-3.4-.7,3.19,3.19,0,0,1-1.4-2.9,4.55,4.55,0,0,1,.5-2c.2-.2.2-.5.5-.5s.2.2.2.7v.7a1.73,1.73,0,0,0,1.4,1.8,8.27,8.27,0,0,0,2.5.2c3.4,0,5-.5,5-1.6,0-1.6-2-3.9-5.9-6.6l.7-2.3a.2.2,0,0,1,.2-.2,1,1,0,0,1,.5.2c3.5,2.9,5.5,5.9,5.5,8.4Z" transform="translate(0 0)"/></g><g id="G_121" data-name="G 121"><path id="PATH_122" data-name="PATH 122" d="M1497.94,306a4.74,4.74,0,0,1-1.4,3.6,5,5,0,0,1-3.6,1.1,3.38,3.38,0,0,1-2.5-.9,3.15,3.15,0,0,1-1.1-2.3,8.41,8.41,0,0,1,1.4-3.9,13,13,0,0,1,2.5-3.4c3.1,1.7,4.7,3.5,4.7,5.8Zm-1.3.9c0-.7-.5-1.4-1.6-2.3a5,5,0,0,0-2.5-1.6c-1.1,1.6-1.8,2.7-1.8,3.6,0,.5.2.9.9,1.4a3.77,3.77,0,0,0,1.6.5,6.55,6.55,0,0,0,2.5-.5C1496.34,307.43,1496.64,307.13,1496.64,306.93Z" transform="translate(0 0)"/><path id="PATH_123" data-name="PATH 123" d="M1512,310.83h-2.5a11.66,11.66,0,0,1-3.6,7.9c-.7.7-1.1,1.1-1.4,1.1a25.83,25.83,0,0,1-4.3-.5,2.23,2.23,0,0,1-.9-.2,3.19,3.19,0,0,1,.9-.5,18.43,18.43,0,0,0,5.2-2.7c.7-.7,1.4-1.1,1.8-2a4.48,4.48,0,0,0,1.1-2.5v-.7h-2.9c-2.3,0-3.2-.9-3.2-2.7a7.36,7.36,0,0,1,.9-3.6c.7-1.4,1.6-2.3,2.5-2.3,1.1,0,2,.7,2.7,2.3a8.7,8.7,0,0,1,.9,3.6h2.5v2.7h.3v.1Zm-4.1-2.7a3.06,3.06,0,0,0-.7-2,1.85,1.85,0,0,0-1.8-1.1,1.29,1.29,0,0,0-1.1.5,2.05,2.05,0,0,0-.5,1.4c0,1.1.9,1.6,2.7,1.6A2.33,2.33,0,0,1,1507.94,308.13Z" transform="translate(0 0)"/><path id="PATH_124" data-name="PATH 124" d="M1526,289.73a13.1,13.1,0,0,1-.9,2.5l-5.7,1.8c-2.5.9-4.3,1.6-5.2,2,1.8,1.8,2.9,3.2,3.6,3.9a10,10,0,0,1,2,4.5,6.76,6.76,0,0,1-.5,3.2c-.7,2-3.2,2.9-7,2.9h-1.1v-2.7h1.4a19,19,0,0,0,3.9-.2c1.6-.5,2.5-1.1,2.5-2.3,0-1.6-1.1-3.4-3.6-5.7l-.2.5a6.67,6.67,0,0,1-1.1-1.4,3.61,3.61,0,0,1-.9-1.4,6.89,6.89,0,0,1,.2-1.8,3.41,3.41,0,0,1,.7-1.6,22.11,22.11,0,0,1,4.8-1.8c2.4-.8,5.1-1.7,7.1-2.4Z" transform="translate(0 0)"/><path id="PATH_125" data-name="PATH 125" d="M1536.44,311a11.2,11.2,0,0,1-2,6.3c-1.1,1.6-2.3,2.5-2.9,2.5a30.3,30.3,0,0,1-4.5-.2.38.38,0,1,1,0-.4,17.08,17.08,0,0,0,5.4-2.7c1.8-1.6,2.9-3.2,2.9-4.8,0-.9-.7-2.3-2.3-3.9l1.1-2a.2.2,0,0,1,.2-.2l.2.2a8.56,8.56,0,0,1,1.4,2.7,6.55,6.55,0,0,1,.5,2.5Zm-1.6-12.2-1.8,1.8-1.8-1.8,1.8-1.8Z" transform="translate(0 0)"/><path id="PATH_126" data-name="PATH 126" d="M1548.24,309.93a11.68,11.68,0,0,1-3.4,8.6c-.7.7-1.1,1.1-1.4,1.1a22.74,22.74,0,0,1-4.3-.5c-.7,0-.9-.2-.9-.2a3.19,3.19,0,0,1,.9-.5,15,15,0,0,0,5.2-2.9c.7-.7,1.4-1.1,1.8-2a4.48,4.48,0,0,0,1.1-2.5v-.7h-2.9c-2,0-3.2-.9-3.2-2.5a7.36,7.36,0,0,1,.9-3.6c.7-1.4,1.6-2.3,2.5-2.3,1.4,0,2.5.9,3.2,2.9a28.44,28.44,0,0,1,.5,5.1Zm-1.6-1.8a3.06,3.06,0,0,0-.7-2,2.52,2.52,0,0,0-1.8-1.1,1.29,1.29,0,0,0-1.1.5,1.88,1.88,0,0,0-.5,1.1c0,1.1.7,1.6,2.3,1.6a16.24,16.24,0,0,0,1.8-.1Z" transform="translate(0 0)"/><path id="PATH_127" data-name="PATH 127" d="M1562.24,310.83h-.9a2.76,2.76,0,0,1-1.8-.5v.7a11.33,11.33,0,0,1-2,6.1c-1.1,1.8-2.3,2.5-2.9,2.5a30.3,30.3,0,0,1-4.5-.2.38.38,0,1,1,0-.4,17.08,17.08,0,0,0,5.4-2.7c1.8-1.6,2.9-3.2,2.9-4.8,0-.9-.7-2.3-2.3-3.9l1.1-2a.2.2,0,0,1,.2-.2l.2.2c.7.9,1.1,1.6,1.6,1.8a4.47,4.47,0,0,0,2.5.9h.7v2.5Z" transform="translate(0 0)"/><path id="PATH_128" data-name="PATH 128" d="M1573.34,310.83h-1.8a4.85,4.85,0,0,1-4.3-2c-.7,1.4-2.3,2-4.8,2H1561v-2.7h2c2.3,0,3.4-.9,3.6-2.5,0-.7.2-1.1.5-1.1s.5.5.5,1.1c.2,1.6,1.4,2.5,3.4,2.5h2v2.7Zm-7.4,5-1.8,1.8-1.8-1.8,1.8-1.8Zm4.1,0-1.8,1.8-1.8-1.8,1.8-1.8Z" transform="translate(0 0)"/><path id="PATH_129" data-name="PATH 129" d="M1582.24,304.43v.9a5.23,5.23,0,0,1-.7,3.2c-1.1,1.6-2.9,2.3-5.9,2.3h-3.2v-2.7h2.3c3.9,0,5.9-.7,6.3-1.8v-.5c0-.5,0-.7-.2-.9a14.15,14.15,0,0,1-2.9.2c-2,0-3.2-.9-3.2-2.7a6.88,6.88,0,0,1,.9-3.6,3,3,0,0,1,2.7-2,3.28,3.28,0,0,1,2.5,1.8,11.58,11.58,0,0,1,1.4,5.8Zm-2.5-12.4-1.8,1.8-1.8-1.8,1.8-1.8Zm.9,10.4a3.06,3.06,0,0,0-.7-2,2.27,2.27,0,0,0-1.8-.9,2.65,2.65,0,0,0-1.4.5,1.07,1.07,0,0,0-.5,1.1c0,.9.7,1.4,2.3,1.4A5.19,5.19,0,0,0,1580.64,302.43Z" transform="translate(0 0)"/></g><path id="_200" data-name=" 200" class="cls-7" d="M1158.64,291.43l-16.3,35.9-25.8,35.1H1080l-8.7-4.1,14.3-31.4-12.9-31.5c-.4-10.5-.9-21-1.3-31.5l2.4-14.7,16.8,6.6,33.1,10.8,15.1,12.5Z" transform="translate(0 0)"/><g id="G_131" data-name="G 131"><path id="PATH_132" data-name="PATH 132" d="M1186.89,245.78c.5,1.1.8,1.8,1.2,2.8.4,1.3,1.2,1.5,2.6,1.5h.2V252h-.3a3,3,0,0,1-2.1-.7h0a7.39,7.39,0,0,1-.9,3.4,7,7,0,0,1-5,2.4,4.17,4.17,0,0,1-4.5-4.4,7.83,7.83,0,0,1,1.3-4.3l.6.3a6.69,6.69,0,0,0-.8,2.7,3.07,3.07,0,0,0,1,2.5,4.71,4.71,0,0,0,2.8,1,6.25,6.25,0,0,0,3.5-1.3c.6-.5,1.1-.9,1.1-1.5a7.18,7.18,0,0,0-.5-2.4,17.58,17.58,0,0,0-1.2-2.4,14,14,0,0,1,1-1.6h0v.1Zm-3.5-4.4a12.94,12.94,0,0,1,1.8,1.6,5.26,5.26,0,0,1-1.2,1.4c-.6-.5-1.1-1-1.7-1.5.4-.6.8-1.1,1.1-1.5Z" transform="translate(0 0)"/><path id="PATH_133" data-name="PATH 133" d="M1191.19,250.08a8.68,8.68,0,0,0,2.6-.4,6.45,6.45,0,0,1-.3-2,4.84,4.84,0,0,1,.9-2.7,6.2,6.2,0,0,1,1.4-1.4,4,4,0,0,1,.3-1.5h.1a54.19,54.19,0,0,0,5.2,3.9c1.3,1,1.8,1.8,1.8,3.1a2.58,2.58,0,0,1-2.9,2.7,19,19,0,0,1-5-1,10.12,10.12,0,0,1-4,1h-.3a.93.93,0,0,1-1-1c0-.4.2-.9,1-.9h.2v.2Zm7-2.4c0-1.2-.9-2.3-1.5-2.3a3.13,3.13,0,0,0-2.4,2.3c0,.5.5,1.2,1.6,1.7C1196.59,249.08,1198.19,248.48,1198.19,247.68Zm2.5,2.7c.8,0,1.6-.3,1.6-.7,0-1-1.3-2-3.1-3.2a8.5,8.5,0,0,1-1.1,3.4,6.69,6.69,0,0,0,2.6.5Z" transform="translate(0 0)"/><path id="PATH_134" data-name="PATH 134" d="M1206.29,248a2.09,2.09,0,0,0,2.4,2.3,6.64,6.64,0,0,0,3.2-1c.2-.1.3-.2.3-.4a4.62,4.62,0,0,0-1.4-2.8,9.32,9.32,0,0,0-3-2.2c-.4-.2-.5-.4-.5-.5a5.55,5.55,0,0,1,.7-1.7h.1a14,14,0,0,1,3.5,3,5.5,5.5,0,0,1,1.5,3.5,5.83,5.83,0,0,1-.6,2.6,8.07,8.07,0,0,1-4.1,1.4c-1.7,0-2.8-.9-2.8-3.1a5.38,5.38,0,0,1,.1-1.1Z" transform="translate(0 0)"/><path id="PATH_135" data-name="PATH 135" d="M1220.49,250.48c-1.7,0-3.2-.8-3.2-2.8a4.22,4.22,0,0,1,.9-2.5,3.29,3.29,0,0,1,2.1-1.2,2.74,2.74,0,0,1,2.2,1.7,7.9,7.9,0,0,1,.9,4,6.79,6.79,0,0,1-1.1,3.9c-1.3,2-2.5,2.8-3.8,2.8a7.49,7.49,0,0,1-4.2-1.4l.2-.5a4.06,4.06,0,0,0,2.1.5,5.69,5.69,0,0,0,4.3-2.2,4.62,4.62,0,0,0,1.4-2.4C1221.89,250.38,1221.19,250.48,1220.49,250.48Zm-.6-4.7c-.7,0-1.6.8-1.6,1.3,0,.9,1.3,1.6,2.5,1.6a9.85,9.85,0,0,0,1.7-.2c-.5-1.5-1.3-2.7-2.6-2.7Z" transform="translate(0 0)"/><path id="PATH_136" data-name="PATH 136" d="M1230.89,244.48l1,2a5.22,5.22,0,0,1,.7,2.8v1.6a7,7,0,0,1-1.8,4.1,3.61,3.61,0,0,1-2.4,1.3,9.29,9.29,0,0,1-3.8-1.1l.2-.5a7.58,7.58,0,0,0,1.6.3c2.1,0,4.2-1.8,5.1-4a2.07,2.07,0,0,0,.2-.6,3.09,3.09,0,0,0-.2-.8,16.54,16.54,0,0,0-1.8-3.2,10.46,10.46,0,0,1,1.2-1.9Z" transform="translate(0 0)"/></g><path id="_325" data-name=" 325" class="cls-8" d="M1021.14,351.33l26.6,3.6,23.6,3.4c-2.3,5.7-4.6,11.5-6.9,17.2l3.3,30.6c3.4,7.5,6.9,15,10.3,22.5-4.9,7.7-9.7,15.3-14.6,23l-11.5,18.3c-.8,10-1.7,20-2.5,30-4.2-2.7-8.4-5.3-12.7-8l-20.2-18.4L998,460.63,985.54,439l16.5-45.7q9.6-20.85,19.1-42Z" transform="translate(0 0)"/><g id="G_138" data-name="G 138"><path id="PATH_139" data-name="PATH 139" d="M1111.59,533a19.45,19.45,0,0,1,1.3,3c.5,1.4,1.3,1.6,2.8,1.6h.2v2h-.3a3.23,3.23,0,0,1-2.2-.7h0a7,7,0,0,1-1,3.6,7.61,7.61,0,0,1-5.3,2.5,4.54,4.54,0,0,1-4.8-4.7,8,8,0,0,1,1.3-4.5l.6.3a7.89,7.89,0,0,0-.9,2.9,3.39,3.39,0,0,0,1,2.7,4.5,4.5,0,0,0,3,1,6.82,6.82,0,0,0,3.8-1.4,2.08,2.08,0,0,0,1.1-1.6,7.3,7.3,0,0,0-.6-2.6,20.14,20.14,0,0,0-1.2-2.5,16.29,16.29,0,0,1,1.1-1.7h.1v.1Zm-3.8-4.7a14.54,14.54,0,0,1,1.9,1.7,4.71,4.71,0,0,1-1.3,1.5c-.6-.6-1.2-1.1-1.8-1.6.4-.6.8-1.1,1.2-1.6Z" transform="translate(0 0)"/><path id="PATH_140" data-name="PATH 140" d="M1117.59,537.58c.2-1.1.5-2.2.8-3.3a13.23,13.23,0,0,1,1.8-4h.1a4.7,4.7,0,0,0,.6.9,8.11,8.11,0,0,1,2,4.4,7.61,7.61,0,0,1-.3,2.1h3v2h-.4a3.18,3.18,0,0,1-1.3-.2h-.1a4.5,4.5,0,0,1,.6,2.1,3.83,3.83,0,0,1-.5,1.9,3,3,0,0,1-2.3,1.5,4.56,4.56,0,0,1-2.2-.6,4.75,4.75,0,0,1-2.1-4v-.8c-.4,0-.8.1-1.2.1h-.3a1,1,0,1,1,0-2h1.8v-.1Zm1.7,4.2a4.11,4.11,0,0,0,3,1.6c.6,0,.9-.3.9-.8a3.41,3.41,0,0,0-.6-1.9,2.78,2.78,0,0,0-2.5-1.2,10.87,10.87,0,0,0-1.8.1,4.87,4.87,0,0,0,1,2.2Zm1.6-4.4c.8-.2,1-.5,1-.8,0-1-.9-2.4-1.9-3.8h-.1q-.75,2.25-1.5,4.8A9.37,9.37,0,0,0,1120.89,537.38Z" transform="translate(0 0)"/><path id="PATH_141" data-name="PATH 141" d="M1126.09,537.58c1.2,0,2.1-.8,2.6-2.8a5,5,0,0,1,1.2-1.9,3.08,3.08,0,0,1,2-.9c1.9,0,3,2.6,3.3,5.4-.3,1.4-.9,2-1.7,2a8.1,8.1,0,0,1-4.6-1.8h-.1a2.51,2.51,0,0,1-2.7,2h-.3a1,1,0,1,1,0-2Zm5.4-.6a5.92,5.92,0,0,0,1.9.5c.2,0,.4,0,.5-.2-.5-2.4-1.5-3.4-2.5-3.4a2.31,2.31,0,0,0-2.1,1.5A5.24,5.24,0,0,0,1131.49,537Z" transform="translate(0 0)"/><path id="PATH_142" data-name="PATH 142" d="M1147,537.58v2h-1.3a7,7,0,0,1-1.2,3.2,5.62,5.62,0,0,1-3.8,2.7,9.45,9.45,0,0,1-4.5-1.6l.3-.5a5.19,5.19,0,0,0,2.3.6,5.87,5.87,0,0,0,4.3-2.2,4.82,4.82,0,0,0,1.5-2.2h-.8c-3.2,0-4.8-1-4.8-3.2a3.74,3.74,0,0,1,.8-2.5,2.92,2.92,0,0,1,2.4-1.5c1.4,0,2.9,2,3.4,5.2Zm-3.5-2.2a2.23,2.23,0,0,0-1.7-.9c-.9,0-1.8.8-1.8,1.4,0,.8.7,1.3,1.7,1.5a12.74,12.74,0,0,0,2.8.2A4.07,4.07,0,0,0,1143.49,535.38Z" transform="translate(0 0)"/><path id="PATH_143" data-name="PATH 143" d="M1147.29,537.58a9,9,0,0,0,3.1-.3c.5-.2.9-.4.9-.7a14.34,14.34,0,0,0-1.6-3.9,14,14,0,0,1,1.2-1.8h.1a11.38,11.38,0,0,1,1.6,4.8,4.69,4.69,0,0,1-1.1,2.9c-.7.7-1.8.9-4.2.9h-.2a1,1,0,1,1,0-2h.2Zm3,5a14.54,14.54,0,0,1,1.9,1.7,4.71,4.71,0,0,1-1.3,1.5c-.6-.6-1.2-1.1-1.8-1.6a6.1,6.1,0,0,1,1.2-1.6Z" transform="translate(0 0)"/></g><path id="_188" data-name=" 188" class="cls-9" d="M690.24,430.13l-16.3,19c-10,3.8-20.1,7.5-30.1,11.3-1.8,3.2-3.6,6.4-5.4,9.5-.5,4.1-.9,8.2-1.4,12.3,2.8,3.1,5.7,6.1,8.5,9.2,6.2-.6,12.3-1.3,18.5-1.9l16.5-7.1,7.7-8.5,4.7,7.8c3.4,3.5,6.8,7,10.1,10.5,4.8-3.4,9.5-6.8,14.3-10.2,1.9-7.4,3.9-14.8,5.8-22.1,1.6-4,3.2-7.9,4.8-11.9-6.4-4.5-12.7-9.1-19.1-13.6l-18.6-4.3Z" transform="translate(0 0)"/><g id="G_145" data-name="G 145"><path id="PATH_146" data-name="PATH 146" d="M658.84,464c-1.2,0-2-.4-2-1.3a3,3,0,0,1,.4-1.3c.5-1,1.7-2,3.6-3.1l-.1-.8a7.64,7.64,0,0,1,.9-.9h.1c0,1.7,0,3.5.1,5.2a2.2,2.2,0,0,0,.4,1.6,2.13,2.13,0,0,0,1.2.3h.3v1.4h-.2a2.06,2.06,0,0,1-2.3-1.6,6.44,6.44,0,0,1-2.4.5Zm2-4.5c-2,1-3,1.9-3,2.5,0,.4.7.6,1.4.6a6.09,6.09,0,0,0,1.7-.3l-.1-2.8Z" transform="translate(0 0)"/><path id="PATH_147" data-name="PATH 147" d="M672.24,465.13H672c-1.4,0-2.1-.8-2.9-1.8-.4-.5-.7-.9-1-1.2h0c0,1.8-1,3.1-4.2,3.1h-.3a.73.73,0,0,1-.8-.8.71.71,0,0,1,.8-.7h.4a5,5,0,0,0,2.7-.7c.2-.1.6-.4.6-.6a3.09,3.09,0,0,0-.2-.8,13.94,13.94,0,0,0-2.7-3l-.8-.8c0-.2-.1-.3-.1-.5a2.24,2.24,0,0,1,.3-1c.1-.2.3-.3.4-.4,1.2-.8,3.8-1.6,6.8-2.6h0a5.67,5.67,0,0,1-.8,1.3c-.7.2-1.6.5-2.6.8a32.68,32.68,0,0,0-3.4,1.4h0c.6.3,1.3.6,1.8.8l-.3.6a50,50,0,0,1,4,4,2.79,2.79,0,0,0,2.2,1.1h.2v1.8Zm-8.1-10c.1-.2.1-.5.3-.7a36.26,36.26,0,0,1,6.2-2.2h0l-.4.7a37.09,37.09,0,0,0-6.1,2.2Z" transform="translate(0 0)"/><path id="PATH_148" data-name="PATH 148" d="M672.44,463.63a6.53,6.53,0,0,0,2.2-.2c.4-.1.6-.3.6-.5a9.56,9.56,0,0,0-1.1-2.8c.3-.5.6-.9.8-1.3h.1a8,8,0,0,1,1.1,3.4,3.23,3.23,0,0,1-.8,2.1c-.5.5-1.3.7-3,.7h-.1a.73.73,0,0,1-.8-.8.71.71,0,0,1,.8-.7h.2v.1Zm1.6-8.3a4.89,4.89,0,0,1,1.3,1.2,4.81,4.81,0,0,1-.9,1.1c-.4-.4-.9-.8-1.3-1.2A10.63,10.63,0,0,1,674,455.33Z" transform="translate(0 0)"/><path id="PATH_149" data-name="PATH 149" d="M678.64,462c0,1,.4,1.7,1.8,1.7a5.13,5.13,0,0,0,2.4-.7c.1-.1.2-.2.2-.3a3.32,3.32,0,0,0-1.1-2.1,7.64,7.64,0,0,0-2.3-1.7c-.3-.1-.4-.3-.4-.4a3,3,0,0,1,.6-1.3h.1a14.35,14.35,0,0,1,2.7,2.3,4.25,4.25,0,0,1,1.1,2.7,4.55,4.55,0,0,1-.5,2,6.29,6.29,0,0,1-3.1,1c-1.3,0-2.2-.7-2.2-2.4a2.49,2.49,0,0,1,.1-.8Z" transform="translate(0 0)"/><path id="PATH_150" data-name="PATH 150" d="M689.64,459.33l.8,1.5a4.34,4.34,0,0,1,.6,2.1v1.2a4.83,4.83,0,0,1-1.4,3.1,2.74,2.74,0,0,1-1.9,1,6.36,6.36,0,0,1-2.9-.9l.1-.4a4.3,4.3,0,0,0,1.2.2,4.78,4.78,0,0,0,3.9-3,1.09,1.09,0,0,0,.1-.5,1.42,1.42,0,0,0-.2-.6c-.4-.9-.9-1.7-1.3-2.5a5.8,5.8,0,0,0,1-1.2Z" transform="translate(0 0)"/><path id="PATH_151" data-name="PATH 151" d="M695.94,465.13h-.1a2.55,2.55,0,0,1-1.9-.6c-.7-.7-.7-1.5-.7-3.1,0-2.1-.1-4.4-.3-6.7a5,5,0,0,1,1.1-1h.1c.2,2.5.2,5.4.2,8.1v.6a1.24,1.24,0,0,0,.8,1.2,2.25,2.25,0,0,0,.7.1h.2v1.4Z" transform="translate(0 0)"/><path id="PATH_152" data-name="PATH 152" d="M697.24,463.63l.6-2.4a9.53,9.53,0,0,1,1.3-2.9h.1a4.35,4.35,0,0,1,.4.7c.8,1.2,1.5,2.2,1.5,3.2a7.72,7.72,0,0,1-.2,1.5h2.2v1.4h-.3a2.77,2.77,0,0,1-.9-.1h-.1a3.32,3.32,0,0,1,.5,1.5,1.84,1.84,0,0,1-.4,1.3,2,2,0,0,1-1.7,1.1,3.17,3.17,0,0,1-1.6-.4,3.65,3.65,0,0,1-1.5-2.9V465c-.3,0-.6.1-.9.1H696a.73.73,0,0,1-.8-.8.71.71,0,0,1,.8-.7Zm1.2,3a2.92,2.92,0,0,0,2.1,1.1c.4,0,.7-.2.7-.6a2.42,2.42,0,0,0-.4-1.3,2,2,0,0,0-1.8-.9,6.15,6.15,0,0,0-1.3.1,2.36,2.36,0,0,0,.7,1.6Zm1.2-3.1c.5-.1.7-.4.7-.6a6.34,6.34,0,0,0-1.4-2.7h-.1c-.4,1.1-.7,2.3-1.1,3.4a10.32,10.32,0,0,0,1.9-.1Z" transform="translate(0 0)"/><path id="PATH_153" data-name="PATH 153" d="M703.74,463.63a11.49,11.49,0,0,0,6-2h0a10.22,10.22,0,0,0-3.5-.8,1.68,1.68,0,0,0-1.4.6l.1.6-.3,1h-.1l-.6-1.5a2.24,2.24,0,0,1,2.4-2,11.29,11.29,0,0,1,3.7,1,9,9,0,0,0,1.9.4h.9l-.6,1.2a3.83,3.83,0,0,0-1.9.4l-1.9,1.2a8.58,8.58,0,0,1-4.9,1.5h-.6a.73.73,0,0,1-.8-.8.71.71,0,0,1,.8-.7h.8v-.1Zm3,4.9a15.38,15.38,0,0,1-1.3-1.2,10.63,10.63,0,0,1,.9-1.1,14.2,14.2,0,0,1,1.3,1.2A13.5,13.5,0,0,1,706.74,468.53Zm1.5,2.2a15.38,15.38,0,0,1-1.3-1.2,10.63,10.63,0,0,1,.9-1.1,14.2,14.2,0,0,1,1.3,1.2A3.33,3.33,0,0,1,708.24,470.73Zm.6-2.4a15.38,15.38,0,0,1-1.3-1.2,10.63,10.63,0,0,1,.9-1.1,14.2,14.2,0,0,1,1.3,1.2A2.07,2.07,0,0,1,708.84,468.33Z" transform="translate(0 0)"/></g><polygon id="_211" data-name=" 211" class="cls-10" points="810.34 440.83 809.24 456.43 817.84 475.43 835.94 493.13 840.44 495.93 845.54 488.23 858.14 487.83 873.04 488.73 884.84 485.63 890.44 474.33 890.44 459.13 895.74 444.83 899.24 432.73 895.74 429.23 886.54 424.03 873.04 420.83 861.94 417.93 852.94 418.63 838.54 425.23 828.64 431.23 822.54 430.13 812.04 438.13 810.34 440.83"/><g id="G_155" data-name="G 155"><path id="PATH_156" data-name="PATH 156" d="M837.74,452.63a15.31,15.31,0,0,0-3.4-3.2,1.28,1.28,0,0,1-.4-1,1.08,1.08,0,0,1,.3-.7,1.91,1.91,0,0,1,.8-.7,41.92,41.92,0,0,1,6-2.2l.1.1a10,10,0,0,1-.8,1.4,12.09,12.09,0,0,0-1.8.5,36,36,0,0,0-3.7,1.5h0l1.8.7-.3.6c1.7,1.4,2.9,2.8,2.9,4.3v.2a2.6,2.6,0,0,1-.8,1.9c-1,.8-3.1,1.1-5.2,1.1-2.8,0-4.6-1.1-4.6-3.6a4.48,4.48,0,0,1,.4-2l.4.1a5,5,0,0,0-.2,1.2c0,1.8,1.4,2.8,4.1,2.8,1.6,0,3.9-.3,4.9-1.2a3.71,3.71,0,0,0-.2-.9c.1-.3-.1-.6-.3-.9Z" transform="translate(0 0)"/><path id="PATH_157" data-name="PATH 157" d="M845.94,453c.6,1.5,1.2,2.4,2.5,2.4h.2v1.4h-.2a1.25,1.25,0,0,1-1.1-.4h0v.4a3.53,3.53,0,0,1-.4,1.7c-.9,1.6-1.9,2.2-2.7,2.2a6.53,6.53,0,0,1-2.8-.9l.2-.4a3.92,3.92,0,0,0,1.3.2,4.35,4.35,0,0,0,3.7-3.4,2.19,2.19,0,0,1-.3-.5,15.05,15.05,0,0,1-1-1.7,4.37,4.37,0,0,0,.6-1Zm-.9-3.9a4.89,4.89,0,0,1,1.3,1.2,4.81,4.81,0,0,1-.9,1.1c-.4-.4-.9-.8-1.3-1.2A10.63,10.63,0,0,0,845,449.13Z" transform="translate(0 0)"/><path id="PATH_158" data-name="PATH 158" d="M848.94,455.53a6.53,6.53,0,0,0,2.2-.2c.4-.1.6-.3.6-.5a9.56,9.56,0,0,0-1.1-2.8,14.8,14.8,0,0,1,.8-1.3h.1a8,8,0,0,1,1.1,3.4,3.23,3.23,0,0,1-.8,2.1c-.5.5-1.3.7-3,.7h-.1a.73.73,0,0,1-.8-.8.71.71,0,0,1,.8-.7h.2v.1Zm1.1,5.9a15.38,15.38,0,0,1-1.3-1.2,10.63,10.63,0,0,1,.9-1.1,14.2,14.2,0,0,1,1.3,1.2A13.5,13.5,0,0,1,850,461.43Zm2.1-.2a15.38,15.38,0,0,1-1.3-1.2,10.63,10.63,0,0,1,.9-1.1,14.2,14.2,0,0,1,1.3,1.2A2.64,2.64,0,0,1,852.14,461.23Z" transform="translate(0 0)"/><path id="PATH_159" data-name="PATH 159" d="M858.34,453c.6,1.5,1.2,2.4,2.5,2.4h.2v1.4h-.2a1.25,1.25,0,0,1-1.1-.4h0v.4a3.53,3.53,0,0,1-.4,1.7c-.9,1.6-1.9,2.2-2.7,2.2a6.53,6.53,0,0,1-2.8-.9l.2-.4a3.92,3.92,0,0,0,1.3.2,4.35,4.35,0,0,0,3.7-3.4,2.19,2.19,0,0,1-.3-.5,15.05,15.05,0,0,1-1-1.7,6.42,6.42,0,0,1,.6-1Z" transform="translate(0 0)"/><path id="PATH_160" data-name="PATH 160" d="M862.24,455.53l.6-2.4a9.53,9.53,0,0,1,1.3-2.9h.1a4.35,4.35,0,0,1,.4.7c.8,1.2,1.5,2.2,1.5,3.2a7.72,7.72,0,0,1-.2,1.5h2.2V457h-.3a2.77,2.77,0,0,1-.9-.1h-.1a3.32,3.32,0,0,1,.5,1.5,1.84,1.84,0,0,1-.4,1.3,2.26,2.26,0,0,1-1.7,1.1,3.17,3.17,0,0,1-1.6-.4,3.65,3.65,0,0,1-1.5-2.9V457c-.3,0-.6.1-.9.1H861a.73.73,0,0,1-.8-.8.71.71,0,0,1,.8-.7h1.2v-.1Zm1.3,2.9a2.92,2.92,0,0,0,2.1,1.1c.4,0,.7-.2.7-.5a2.69,2.69,0,0,0-.4-1.3,2,2,0,0,0-1.8-.9,6.15,6.15,0,0,0-1.3.1,2.33,2.33,0,0,0,.7,1.5Zm1.1-3.1c.5-.1.7-.4.7-.6a6.34,6.34,0,0,0-1.4-2.7h-.1c-.4,1.1-.7,2.3-1.1,3.4a3.84,3.84,0,0,0,1.9-.1Z" transform="translate(0 0)"/><path id="PATH_161" data-name="PATH 161" d="M875.14,444.83a10,10,0,0,1-.8,1.4,12.09,12.09,0,0,0-1.8.5,36,36,0,0,0-3.7,1.5h0l1.8.7-.3.6c1.7,1.4,2.9,2.8,2.9,4a3.5,3.5,0,0,1-.7,2.3c-.7.6-1.8,1-3.9,1h-.4a.73.73,0,0,1-.8-.8.71.71,0,0,1,.8-.7h.7a5.57,5.57,0,0,0,3-.6,1.07,1.07,0,0,0,.6-.6,2.91,2.91,0,0,0-.8-1.7,15.31,15.31,0,0,0-3.4-3.2,1.28,1.28,0,0,1-.4-1,1.08,1.08,0,0,1,.3-.7,1.91,1.91,0,0,1,.8-.7c1.3-.5,3.4-1.2,6.1-2Z" transform="translate(0 0)"/></g><path class="cls-3" d="M559,541" transform="translate(0 0)"/><polygon class="cls-11" points="574.02 576.24 582.22 572.64 582.22 556.73 589.61 542.63 588.24 535.63 571.24 527.43 547.31 527.43 542.04 524.13 528 537 512.04 551.93 532.74 560.41 552.84 566.73 574.02 576.24"/><path d="M277,678.29c.95,2.27,1.81,3.59,3.74,3.59h.3V684h-.35a2.34,2.34,0,0,1-1.68-.53H279c0,.2,0,.4,0,.58a5.51,5.51,0,0,1-.67,2.57c-1.31,2.31-2.74,3.31-4,3.31a9.72,9.72,0,0,1-4.15-1.3l.25-.56a4.49,4.49,0,0,0,1.91.36c2.23,0,5.15-2.52,5.51-5a3.45,3.45,0,0,0-.44-.74,15.92,15.92,0,0,1-1.45-2.48c.33-.76.63-1.38.92-1.92Z" transform="translate(0 0)"/><path d="M282.89,681.88c.26-1.17.55-2.33.89-3.54a14.75,14.75,0,0,1,1.9-4.27l.15-.05a8.68,8.68,0,0,0,.61,1c1.23,1.74,2.18,3.27,2.18,4.66a7.33,7.33,0,0,1-.32,2.2h3.24V684h-.43a5.37,5.37,0,0,1-1.4-.17l-.08,0a4.45,4.45,0,0,1,.68,2.24,3.94,3.94,0,0,1-.53,2,3.12,3.12,0,0,1-2.49,1.56,4.49,4.49,0,0,1-2.36-.66,5.15,5.15,0,0,1-2.26-4.27v-.81a10.84,10.84,0,0,1-1.31.08h-.31a1.07,1.07,0,0,1-1.17-1.11,1,1,0,0,1,1.17-1Zm1.81,4.38a4.45,4.45,0,0,0,3.17,1.66c.63,0,1-.35,1-.82a3.33,3.33,0,0,0-.65-2,3,3,0,0,0-2.65-1.29,11.91,11.91,0,0,0-1.88.15A4.24,4.24,0,0,0,284.7,686.26Zm1.72-4.62c.8-.21,1.1-.53,1.1-.84,0-1.07-1-2.51-2.06-4h-.08c-.57,1.65-1.1,3.34-1.56,5.09A10.37,10.37,0,0,0,286.42,681.64Z" transform="translate(0 0)"/><path d="M304.92,676.89a19.11,19.11,0,0,1,.26,3,5.56,5.56,0,0,1-.59,2.27,3.19,3.19,0,0,1-2.46,1.83,2.81,2.81,0,0,1-2.08-1.38h-.13A3.87,3.87,0,0,1,297,684a1.43,1.43,0,0,1-1.6-1.41h-.06a4.45,4.45,0,0,1-3.54,1.41h-.28a1.06,1.06,0,0,1-1.16-1.11,1,1,0,0,1,1.16-1h.56a3.93,3.93,0,0,0,3.5-1.55l.92-1.31,1.28-.45.06.08a6.4,6.4,0,0,0-1.13,2.39.8.8,0,0,0,.87.84,2.59,2.59,0,0,0,1.47-.49c.59-.43.67-.91,1.18-2.64l1-.58.1.07a7.48,7.48,0,0,0-.22,1.63,1.79,1.79,0,0,0,1.73,1.91.78.78,0,0,0,.88-.75,14.73,14.73,0,0,0-.42-2.69,13.28,13.28,0,0,1,1.5-1.5Zm-5.71-1.14c-.68-.65-1.28-1.18-1.94-1.73a13.75,13.75,0,0,1,1.31-1.57,15.47,15.47,0,0,1,1.89,1.77A9,9,0,0,1,299.21,675.75Zm.89-3.54c-.68-.64-1.27-1.18-1.94-1.72a15.06,15.06,0,0,1,1.31-1.58,15.64,15.64,0,0,1,1.9,1.78A8.86,8.86,0,0,1,300.1,672.21Zm2.31,3.32c-.68-.64-1.28-1.18-1.94-1.72a15.06,15.06,0,0,1,1.31-1.58,14.88,14.88,0,0,1,1.89,1.78A8.4,8.4,0,0,1,302.41,675.53Z" transform="translate(0 0)"/><path d="M319.94,675.73a18.92,18.92,0,0,1,2.61,2.49c.83.92,1.33,1.73,2,2.61a3.24,3.24,0,0,0,2.43,1h.26V684h-.33a3.11,3.11,0,0,1-2.79-1.54l-.1,0c-.13,1.26-1,2.51-2.12,2.51-2.29,0-4.17-2.29-4.22-5.15-1.33,1-1.94,1.93-1.94,2.59a13.91,13.91,0,0,0,.81,3.62,39.47,39.47,0,0,1,1.76,6.37,11.22,11.22,0,0,1-.35,2.44h-.2a48,48,0,0,0-1.84-5.86,19.2,19.2,0,0,1-1.41-5.33,8,8,0,0,1,.3-2,5.56,5.56,0,0,1,1.68-2.86c1.22-1.09,2.42-2.12,3.28-3.07Zm-1.18,3.52a3.55,3.55,0,0,0,1.27,2.69,2.94,2.94,0,0,0,2,.81c.58,0,1.08-.26,1.08-.61a2.28,2.28,0,0,0-.58-1.29,14,14,0,0,0-2.83-2.83C319.48,678.29,318.76,678.77,318.76,679.25Z" transform="translate(0 0)"/><path d="M327.63,681.88c1.28,0,2.61-.52,2.85-1.47l.49-1.79,1.14-.83.1.12a8.91,8.91,0,0,0-.36,1.92,1.67,1.67,0,0,0,.54,1.38,3.13,3.13,0,0,0,2.06.67h.3V684h-.38c-1.63,0-2.86-.45-3.42-1.69h-.07a3.56,3.56,0,0,1-3.3,1.69h-.32a1.06,1.06,0,0,1-1.16-1.11,1,1,0,0,1,1.16-1Zm1.88,8.74c-.69-.64-1.28-1.17-1.95-1.72a15.06,15.06,0,0,1,1.31-1.58,14.94,14.94,0,0,1,1.9,1.78A9.32,9.32,0,0,1,329.51,690.62Zm3.2-.21c-.68-.65-1.28-1.18-1.94-1.73a14.86,14.86,0,0,1,1.31-1.58,16.41,16.41,0,0,1,1.89,1.78A8.94,8.94,0,0,1,332.71,690.41Z" transform="translate(0 0)"/><path d="M351.75,684h-.41c-2.06,0-3-.63-3.42-1.56h-.1A3.72,3.72,0,0,1,345,684a1.65,1.65,0,0,1-1.81-1.38h-.07a3.75,3.75,0,0,1-2.87,1.38,1.42,1.42,0,0,1-1.59-1.41h-.07A4.44,4.44,0,0,1,335,684h-.28a1.06,1.06,0,0,1-1.16-1.11,1,1,0,0,1,1.16-1h.57a4,4,0,0,0,3.5-1.55l.83-1.29,1.28-.45.06.08a6.74,6.74,0,0,0-1.08,2.37.83.83,0,0,0,.9.84,2.47,2.47,0,0,0,1.45-.5,3.66,3.66,0,0,0,1.07-1.46l.4-1,1.26-.58.07.06a6.86,6.86,0,0,0-.68,2.49.91.91,0,0,0,.93,1,1.93,1.93,0,0,0,1.15-.37,2.66,2.66,0,0,0,1-1.59c.06-.27.16-.59.33-1.32l1.26-.84.07,0a9.15,9.15,0,0,0-.42,2.27c0,1.31,1.15,1.8,2.73,1.8h.36Z" transform="translate(0 0)"/><path d="M352,681.88a10.57,10.57,0,0,0,3.27-.32c.59-.22.95-.45.95-.73a13.85,13.85,0,0,0-1.66-4.1,12.27,12.27,0,0,1,1.25-1.88h.08a11.78,11.78,0,0,1,1.66,5.07,5,5,0,0,1-1.16,3.08c-.75.75-1.93,1-4.47,1h-.2a1.06,1.06,0,0,1-1.16-1.11,1,1,0,0,1,1.16-1Zm2.31-12.36a14.8,14.8,0,0,1,2,1.78,6.6,6.6,0,0,1-1.37,1.63c-.65-.62-1.3-1.15-2-1.71C353.44,670.62,353.89,670,354.34,669.52Z" transform="translate(0 0)"/><path class="cls-12" d="M372,669l119.18-77.73L556,549Z" transform="translate(0 0)"/><line id="LINE_23-2" data-name="LINE 23" class="cls-6" x1="1180.19" y1="264.58" x2="1114.99" y2="308.53"/><line id="LINE_23-3" data-name="LINE 23" class="cls-6" x1="1047.49" y1="432.28" x2="1118.29" y2="511"/></svg>